/* XPM */
static char *fb6ded0222c2435bd52b3d47d4c3dbdahqd2JmVZUv9kUPeK[] = {
/* columns rows colors chars-per-pixel */
"64 64 146 2 ",
"   c #4F3311",
".  c #523513",
"X  c #563816",
"o  c #5C3B15",
"O  c #563A19",
"+  c #5C3E1A",
"@  c #613E16",
"#  c #603F19",
"$  c #5F401D",
"%  c #644117",
"&  c #6E4515",
"*  c #64431C",
"=  c #6A461A",
"-  c #6D491D",
";  c #704614",
":  c #744916",
">  c #794C16",
",  c #734B1C",
"<  c #7A4E1B",
"1  c #7C511E",
"2  c #5E4324",
"3  c #644521",
"4  c #694720",
"5  c #664926",
"6  c #6B4A24",
"7  c #674A28",
"8  c #6C4D29",
"9  c #734D22",
"0  c #784F20",
"q  c #714F2A",
"w  c #6D502E",
"e  c #765024",
"r  c #7C5323",
"t  c #74522C",
"y  c #7B562B",
"u  c #7D582C",
"i  c #715431",
"p  c #785731",
"a  c #7C5A33",
"s  c #282E48",
"d  c #223444",
"f  c #263749",
"g  c #2B3E53",
"h  c #2F435C",
"j  c #424F5E",
"k  c #42505D",
"l  c #475363",
"z  c #4A5865",
"x  c #545E68",
"c  c #52626F",
"v  c #58626C",
"b  c #536371",
"n  c #951C1A",
"m  c #B11D1B",
"M  c #BC221E",
"N  c #8D1E27",
"B  c #BD2323",
"V  c #CB1F1C",
"C  c #CB2016",
"Z  c #C5231E",
"A  c #C9211B",
"S  c #C21F20",
"D  c #C62422",
"F  c #C92321",
"G  c #C72A23",
"H  c #C32D2C",
"J  c #CC2E2F",
"K  c #D32620",
"L  c #D72825",
"P  c #D12C2A",
"I  c #DC2E2B",
"U  c #DE2E30",
"Y  c #D03636",
"T  c #D13D39",
"R  c #E92727",
"E  c #E62B26",
"W  c #E92926",
"Q  c #EC2729",
"!  c #E72A28",
"~  c #E92A29",
"^  c #EA2830",
"/  c #ED3130",
"(  c #84541D",
")  c #88571D",
"_  c #8A581E",
"`  c #905C1E",
"'  c #825622",
"]  c #885720",
"[  c #865924",
"{  c #8B5B24",
"}  c #815728",
"|  c #835B2B",
" . c #8B5E2B",
".. c #905E24",
"X. c #845E32",
"o. c #885E30",
"O. c #8E612D",
"+. c #956225",
"@. c #986427",
"#. c #93632C",
"$. c #99662A",
"%. c #97682F",
"&. c #9C692E",
"*. c #856035",
"=. c #8C6333",
"-. c #876338",
";. c #8C663A",
":. c #8F693C",
">. c #926633",
",. c #956935",
"<. c #9A6B36",
"1. c #946B3A",
"2. c #9A6E3B",
"3. c #9E713D",
"4. c #A26F35",
"5. c #A3743C",
"6. c #AA773D",
"7. c #AA793E",
"8. c #EE4D3B",
"9. c #956D40",
"0. c #9C7242",
"q. c #A27643",
"w. c #A57844",
"e. c #AB7C44",
"r. c #A77B48",
"t. c #AB7E4A",
"y. c #B07D43",
"u. c #DB5248",
"i. c #ED5A48",
"p. c #F65B47",
"a. c #D2615D",
"s. c #EA6243",
"d. c #EB6049",
"f. c #F16043",
"g. c #F66248",
"h. c #F6685E",
"j. c #DA6A66",
"k. c #E26666",
"l. c #E77672",
"z. c #FFF200",
"x. c #AF8046",
"c. c #AF814C",
"v. c #B78243",
"b. c #B58349",
"n. c #78828B",
"m. c #FFE9E6",
/* pixels */
"q.w.0.-.p 1.q.w.e.5.=.=.4.3 3 =.O. .$ e + r ' 0 = r < : ( > ( ; ; > ( ( _ _ ( # u { r r y $ u O.O.u e 2 6 8 6 5 2 i a :.a a a 0.",
"t.t.0.i 8 0.3.w.3.,.8 8 5.e * 3 * , 6 O.9 % $ % 1 < < 1 ( > > > > ; > ` ` _ ] . = r { O.O., u 9 - *.O.y ;.5.,.t a X.t 9.0.r.c.c.",
"w.c.w.i 7 ;.3.3.1.>.y X.<.| =.#.} y e #.$., * = % @ ( _ ) ( & > > o ; _ _ < ( X * 1 | = $ $ $ = y O e u 4.5.<.=.e.a a w.0.9.0.r.",
"9.9.9.a -.*.w *.;.,.X.<.,.,.<.4.#.O.| O.#.' r = , % ( ( ) (   , : o > ( 3 3 # + - r O e | % r O.e . - +.2.<.2.u e.=.;.;.a w -.9.",
";.a 1.;.;.0.y *.2.3.| ,.|  .>.%.,.#.e 9 % + X X o % = > ( ( . : @ o 3 3 # 4 # } [ e . , O.O.$.+.' O $ O.%.=.2.w 2.X.;.;.-.i a -.",
"a w a ;.:.3.-.*.5.3.=.,.<.>.#.y e 9 X   O * < 1 _ = X   o o . % @ 4 # # 3 [  .$.+.r O * +.r %.$.O.* $ { O.,.,.5 t 1.2.0.0.w a 9.",
"-.w a ;.*.1.u *.3.<.=.=.,.O.| } e r 6 * *  .{ { +.( < = 1 1 ) 3 # $ = 3 * 4 ' $.$.O.* $ [ r @.@._ , . - 5 6 t *.>.-.-.p 8 2 i 0.",
"0.p b.e.e.3.=.=.p 6 t u O. .y | e  .$.[ 0 , { ..+.{ ' _ _ +...% 4 3 [ #.* * ' #.@.{ < O = ' @.@.{ 1 . O t e >.w.q.y.e.t -.;.;.2.",
";.8 t t =.,.,.*.y 8 3 3 2 2 9 O.O.&.#.$.{ 6 r [ ] ..` _ ......4 [ * 9 ' r = [ $.@.+., . O { O.' ' , + < 3 a 5.5.5.2.1.5 ;.1.1.3.",
"6 y t 8 p w 7.3.,.w 9 5.e $ 3 * 9 9 { 9 % + % 1 , ; ( ( ( < > * 4 * * r r < [ { ' ' , $ , r 1 1 1 < @ 1 t O.2.,.,.2.3.6 ,.>.>.3.",
"8 1.,.3.5.2.3.1.>.t *.<.| O.O.| y e #.$., % - # @ ) ) ) ( @ < * % r - [ $ + ' r 1 1 < + 1 +.} 1 + = * (  .y | >.;.=.=.5 X.y 8 ;.",
"8 =.3.2.2.O.*.=.,.*.<.,.<.<.4.#.O.}  .#.[ r = , @ ( ) ) (   : ' = r 0 [ * , ..{ 1 + & = ) b c c b = * $ + 6 y O 0 } >.| 1.| 8 =.",
"$ t =.t q u *.2.<.*.,.| O.,.%.%.O.0 9 % + X X o @ @ < ( ( . ; r 0 + + ' ' 1 r < % 1 ' b b b c b z.z.3 * '  .e . <  .=.O.>.>.t 5 ",
"8 6 =.e 8 O.*.5.3.=.,.<.,.O.y e 9 O   O * < < _ , X   @ o . @ # $ * , ..' 1 @ = = ( b b c b l z.z.z.z.O.#.#.' X * #.,.>.| |  .X.",
"u *.y $ * 3 *.3.2.O.=.,.O.[ u e r 6 * *  .{ { ..' < & < ( ] ] * , +.[ e + = = ) c c b b k = z.z.z.z.z.z.@.@. .* + [ #.>. .| u y ",
"O.- *.$ e u =.t w e u *.O.u [ e O.#.[ 0 , { ......] ] ] ....] , % + , ( 1 v c c c k = 3 $ $ z.z.z.z.z.z.@.$.[ 0 . = y O.y y | y ",
"#.9 y O.O.%.*.y 8 3 3 2 $ e O.O.&.#.$.O.- r ' { +.{ ' { +.+...( % = +...' b c c b l $ = * * z.z.z.z.z.z.@.@.{ <   + 6 * 3 y | } ",
"u u O.e e %.&.$.&.O.O.* Z ! ! ! ! E ! B D Z Z D D Z D F A K ..@.+.+.+.+.x b b z k 3 3 [ #.* z.z.z.z.z.z.{ [ ' < + , 6 * * 9 } | ",
"$ e O.- 6 O.e %.r r 6 % m ! ! ! ! ! ! / a y u u y y u y y S @.@.+.@.h g b b b j 3 * = 6 y * z.z.z.z.z.z.' 1 1 < $ 1 X e [ e 6 * ",
"* , 6 O % O.* [ * - 6 % M ! ! ! ! ! ! E ^ u y u u a y y u j.j...+.n.g g g c b j $ * * * ( r z.z.z.z.z.z.' 1 # = = (   e #.#.O.e ",
"r 1 y 1 - * $ * + e ' y V ! ! ! ! ! ! ! ! ! ! E U E ~ E ! R ~ ! ~ B B D g g d d * = y = ' r z.z.z.z.z.z.1 r 1 % < ' X * #.&.@. .",
"r O.r r ' - $ , $ 1 r +.V ! ! ! ! ! ! ! ! ! ! ! ^ B ^ H h.J Y T P u.i.m D d d d 3 * r < { $ z.z.z.z.z.z.1 + = * (  .* + [ #.#.[ ",
"1 r < 1 1 O.1 O.' ' ' { V E ! ! ! ! ! ! ! ! ! ! E U ~ ~ E ! ! Q ~ ! Q 8.D N s d * r $ + r * , z.z.z.z.= = ) r $.$.{ , X - , [ [ ",
"r - $ - < [ 1 ( 1 r ' ' C E ! ! ! ! ! ! ! ! ! ! ! R ~ ! ! ! ! ! ~ ~ W ~ f.n n f r r * - +.' 1 + z.z.( O.1 = [ @.@.{ 0 . o - 0 0 ",
"$ X . o o % , = , 1 e = A E ! ! ! E ! ! ! ! ~ ! ! ~ ! ! ! ! ! ! E ~ ! ! ! ~ ~ m.r $ $ ' 1 1 1 1 # 1 &.O.r 0 [ [ [ ] , + : { ' @ ",
"$ . X o % + o + o X o o A ! ! ! ! ! ! ! ! ! ! E ! ! ! ! ! ! ! ! ! ! ! ! ! ! R p.$ * = +.[ 1 + = = ( @.| + + ] ' r r < @ 1 +.] = ",
"$ % & ( < = < & 0 , , ' A ! ! ! ! ! ! ! ! ! ! ! ! ! ! ! ! ! E ! ! ! ! ~ ! ! E i.* , +.' 1 + = = ( = < [ * 9 ..[ 1 o = = ( ] 1 % ",
") 1 1 ( 1 ( ( ( ] < + , A ! ! ! D ! ! ! ! ! ! ! ! ! ! ! ! ! ~ ! ! ! ! E ! ! E d.O.r = ' $.@.{ 1 . + - + - ' ] [ { @ + > ( _ ( o ",
"> ; ( ( ( ( ) ) ] ' O - A ! ! ! D K E ~ ! ! ! ! ! ! ! ! ! ! ! ! ! D ! ! ! ! E d.O.r < { { { ' , + < { O 0 ' [ ' ( o o ( _ ( : X ",
"% $ ; > ( ( ; > = 1 - < A ! ! D D D L ! ! ! ! ! E ! ! ! ! ! ! ! ! F F D ! ! E d.| + + ' ' 1 r < @ < ..9 4 ' r [ <   o ( ( ( @ o ",
"% o o o o o   o X % % # A ! ! ! F F V ~ ! ! ! ~ ~ ! ! ~ ! ! ! ~ D Z F I ! ! E d. .* , +.] 1 + & = ( _ 0 % [ r [ < X       o o @ ",
"; @ . . o o @ @ % % e [ A E I ! ~ D F F F F D D D D D D D D D D F F ! ! ! ! E d.$ = ' ' { ' @ o < { ( * +  .0 ' , o @ : > @ @ : ",
"; > > ) _ _ ( _ r % ' [ A ! ! E ! ! R F D F D F F F F D F F F F F ~ E ! ! ! E d.O 0 ' ] ' 1 o o ( ( ( e + r ] 0 = ' < , < ( ( ; ",
"> ; < ` { _ { _ ' X = r A ! ! ! ! ! ! D Z V A A A V F V V F F F E ! E ! ! ! E d.9 = y ' ' < X o < ( ( { 9 + + % 1 , : ( ( > > : ",
"> @ ; _ _ < ( < ) . % e A ! ! ! ! ! ! F F ! ! ! E ! ! ! ~ F F F ! ! ! ! ! ! E d.0 * [ ' [ 0 O . .   @ #.$., * = + + _ _ ( ( & > ",
": o > ( ( @ ( o ' o - 1 A ! ! ! ! ! ! F D U ! ! ! ! ! ! W F F F ~ ! ! ! ! ! E d.3 + { e ' < o # : : @  .#.[ r = : % ( ( ) (   > ",
"@ o > ( <   =   = o < r A ! ! ! ! ! ! D F ~ ~ ! ! E ! ! ! F F S ! ! ! ~ ! ! E d.e + r ' e = ' : : ( ( 9 # + X . o @ % > ( (   : ",
"@ o < _ : . % X % = ' ' A W ! ! ! ! ! D D ~ ! ! ! ~ ! ! ! F F F ! ! E ! ! ! E d.O.- % + % 1 : > < ( < . O % < 1 ] , o . o o   @ ",
"@ X @ @ = , + = + : 1 { A E ! ! ! ! ! F F ! ! ! ! ! ! ~ R D F K ! ! ! ! ~ E E d.$.#., * = % + ( ) ) ( % =  .{ { ..( , = ( ( _ ) ",
", % # : ( 1 X 1 X e 1 ' A ! ! ! ! ! ! F F ~ ! ! ! ! ! ! ~ F F S ~ ! W ! ! ~ E d.O.#.[ r = , % ( ) ) ( _ 0 , { { +.{ ] _ _ ...._ ",
"r @ = +...' o ' o 1 ' r A E ! ! ! ! ! F F ! ! ! ! ! ! ! ! F F F ~ ! ! ! ! ! E d.e * + . . + % = : ( ( $.{ , r [ { { { { { { +...",
"[ # * ....[ X ' X = r { A E ! ! ! ! E F F U ! ! ! ! ! ! E F F F ~ ! E ! ! ! E i.  O * < 1 { ; X   o o #.@.e ' [ ' { ' .._ { [ { ",
"' # 0 ..&.{ @ { * $ - e A E ~ ! ! ! ! F D ! ! ! ! ! ! E ! D F F ~ ! ! ! ~ ! E d.* = O.{ { { ( < = ( ( #.#.- * = < 9 * 0 r { {  .",
"O # 4 0 #.r = ' = $ r [ A E ! ! ! ! ! F S V A V V V F V V F F D E ! E ~ E ~ E d.[ e , ' +.+.{ ) ] ( +.|  .* = r ' 0 O * ' - * # ",
"' 3 # 9  .r * e * $ r [ A ! ! ! ~ ~ ~ F D F F F F F D F F D F F D ! E ! ! ! E d.$.+., r ' { ..{ { ....e y 0 0  .$.#.+ O ' 9 r | ",
"| 9 + 9 { = 6 = - $ - } M ! I ~ ~ A F F F D D D D D D D D D D D D G ! ! ! ! E d.#.%.e ' ' ' { ' { ' { [ ' y '  .&.<.' X * 9 e ' ",
" .9 4 9 | y y r y , } #.M ~ ! ! F Z Z ~ ! ! ~ ! ~ ! ! ! ! ~ ! ~ D Z F I ! ! E d.O.#.= * = e < * 0 r { * 9 '  . .#.{ 0 O # } #.>.",
" .3 } = #.[ } [ } | #.#.G E ! D F F L ! ! ! ! ! E ! ! ! ! ! ! ! ! F F F ! ! E d.[ { 3 * r ' e o = ' 4 e } '  . . .6 6 3 4 e  .#.",
"=.3  .9 =.#.| #.| | #.O.A E W ! D K ! ! ! ! ! ! ! ! ! ! ! ! ! ! ! D ! ! ~ ~ E d.0 y 9 0  .&.#.% O y , y | r #.#.| $ 3 3 6 y O.| ",
"3 3 =.9 O.#.| %.[ u 6 >.A E ! ! D E ! ! ! ! ! ! ! ! ! ! ! ! ! ! ! ~ E ! E E E d.[ [ y ' #.&.&.y X * 0 e } y | =.O.3 e e O 3 u 3 ",
"3 9 | 6 O.=.O.,.O.O.$ r A ! ! ! ! ~ ! E ! ! ! ! ! ! R ! ! ! ! ! ! ~ ! ! ! ! W d.* 6 '  .{ #. .0 + # y [ 9 | 6 * 3 u O.O.u u O.u ",
"o.5.2.} | >.O.>.=.<.3 =.A ! ! ! ! ! ! ~ ! ! ! ! ! ! ! ! ! ! ! ! ! ! ! ~ ! ! E s.e | y  . . .= 6 3 6 e y 6 =.O.t y #.,.>.>.| y e ",
"5.6.5.6.4.>.>.>.>.X.3 =.A ! ! ! ! ! ! ! ! ! ! ! ! ! ! ! ! ! ! ! ! ! ! ! E ~ E s.y  .e #.O.| + 3 3 6 y 3 y  .u 3 } y ,.>.,.6 w | ",
",.e.6.v.6.>.<.>.<.6 3 6.Z ! ! ! ! ! ! ! ! ! ! ~ ! ! ! ! ! ! ! ! ! ! ! ! ~ ~ ~ g.e | y | >. .6 9 9 O 3 | <.>.2.| t 5 =.| =.3 8 u ",
"2.5.6.e.3.u 2.5 8 ,.,.| t | ! ! ! ! ! ! ! ! ~ ~ ! ! ! ! ! ! ! ! ! ! ! ! ~ | 9 | | 9 [ 5 3 3 } O.O.u u e ,.5.,.| | t -.X.=.5 y 8 ",
"2.1.5.1.=.3 8 t y X. .y 6 O.a.k.k.k.k.k.k.k.k.k.k.k.k.k.k.k.k.k.k.k.k.k.l.y 5 >.u 5 #.O.9 y >.>.>.>.| 5 ;.5.,.y 7 y 7 5 5 5 t 5 ",
"5 5 y *.*.*.*.w 5 | 2.$ u  .3 |  . .%. .' 9 ] { [ ] , @ , .._ @ % . . o o * y  .3 u  .u 3 | y <.,.<.5 } =.<.2.8 w >.t X.t a a 2 ",
"a -.3.t p =.u ;.y X.=.| =.} 3 + 6 [ .. .# # ' ' 0 0 < @ ( ` ` @ O O o + + + o X | <.>.1.X.q 5 =.X.=.3 =.>.<.2.8 X.q.1.5.0.3.3.y ",
"2.3.:.*.7.r.x.,.w t =.,.,.=.3 3 6 9 [ | * 9 { [ 0 # = = ( ( ( @ % % = ( < = 0 , 9 <.5.,.X.X.t =.X.=.7 >.=.>.| 7 X.3.3.q.0.9.1.1.",
"a 7 7 ;.b.w.x.a 5 y | 1.>.| 5 r 4 + 9 # 4 [ ] [ ] @ o > ) ) ( o _ < 1 ( 1 ( ] , 5 =.5.<.y 3 y 5 7 3 3 =.| 5 5 7 t a 0.r.e.0.q.1.",
"a i a 9.w.2.0.t 3 w =.<.>.>.* 3 4 # 6 O 0 ' ' ' ( + o ( ( ( >   > & ( ( ( ] ] { | =.<.<.t 8 1.t X.t a } 1.1.2.,.X.w 0.0.w.q.:.a ",
"a 0.r.9.1.2.0.a 5 5 3 6 | <.y | e } 0 9 = r ' [ < X X < ( ( @ o @ o ; > ( < % 1 - 0 #.- % + 6 r y | | ,.4.2.6.1.a 2 w w i ;.i 8 ",
"i i i :.a w w p w y 6 8 t 6 y O. .| 0 9 * | r [ < X . .   @ o @ @ o o o o o X @ % % * # * 9 u | | u o.t 2.5.5.1.7 i a 9.0.r.i w ",
"a w 7 ;.;.*.-.3.3.7.3.5.=.8 3 | O.| 3 4 + { 0 ' 0 o @ : ; @ @ > ; @ o X X # % % e [ [ O. .3 } | } y o.5 2.1.1.2.8 a 9.a a a i a "
};
