/* XPM */
static char *result[] = {
/* columns rows colors chars-per-pixel */
"64 64 225 2 ",
"   c #010101",
".  c #0A0101",
"X  c #020905",
"o  c #02040B",
"O  c #1F1D1E",
"+  c #13182E",
"@  c #0D1C3A",
"#  c #131E3A",
"$  c #0F2335",
"%  c #252324",
"&  c #2B2929",
"*  c #2C322E",
"=  c #32332F",
"-  c #362E30",
";  c #2C3632",
":  c #333333",
">  c #353735",
",  c #3A3434",
"<  c #4F3311",
"1  c #523614",
"2  c #563816",
"3  c #5B3A15",
"4  c #563A1A",
"5  c #5C3D1A",
"6  c #613E15",
"7  c #603F19",
"8  c #6E0E2B",
"9  c #770A27",
"0  c #740E2B",
"q  c #6B1429",
"w  c #731126",
"e  c #72112D",
"r  c #7C1428",
"t  c #760E30",
"y  c #7C1431",
"u  c #42363A",
"i  c #5F401D",
"p  c #694316",
"a  c #63421C",
"s  c #6A461B",
"d  c #6D491E",
"f  c #754916",
"g  c #734B1C",
"h  c #7A4E1B",
"j  c #7C511D",
"k  c #5E4324",
"l  c #644522",
"z  c #694720",
"x  c #664926",
"c  c #6B4A24",
"v  c #674A28",
"b  c #6C4D29",
"n  c #734E23",
"m  c #784F20",
"M  c #714F2A",
"N  c #6D502E",
"B  c #765125",
"V  c #7C5323",
"C  c #74522B",
"Z  c #7B562B",
"A  c #7D592C",
"S  c #715431",
"D  c #785731",
"F  c #7C5A33",
"G  c #1E274F",
"H  c #162B49",
"J  c #1A3246",
"K  c #1C2B54",
"L  c #1D3752",
"P  c #7A645E",
"I  c #796B66",
"U  c #82122A",
"Y  c #971E2C",
"T  c #8E1B37",
"R  c #961F32",
"E  c #9B1D33",
"W  c #981E3C",
"Q  c #A11A3B",
"!  c #922528",
"~  c #99212E",
"^  c #952233",
"/  c #9A2133",
"(  c #96233A",
")  c #A0202D",
"_  c #B4312E",
"`  c #B52B37",
"'  c #BE2D35",
"]  c #BC2C3B",
"[  c #B63337",
"{  c #BE3435",
"}  c #BD313D",
"|  c #C22E37",
" . c #C72939",
".. c #C12D3A",
"X. c #C13236",
"o. c #CB3036",
"O. c #C3343A",
"+. c #C63639",
"@. c #CA313C",
"#. c #E33F3E",
"$. c #84541D",
"%. c #88571D",
"&. c #8A581E",
"*. c #905C1E",
"=. c #825623",
"-. c #885720",
";. c #855925",
":. c #8B5B24",
">. c #815728",
",. c #835B2B",
"<. c #8A5E2B",
"1. c #905E24",
"2. c #835E32",
"3. c #885E30",
"4. c #8E612D",
"5. c #946125",
"6. c #93642C",
"7. c #99662A",
"8. c #9D6A2D",
"9. c #856035",
"0. c #8C6333",
"q. c #8A653A",
"w. c #8C663A",
"e. c #926633",
"r. c #956935",
"t. c #9A6B35",
"y. c #946B3A",
"u. c #9A6E3B",
"i. c #9E713D",
"p. c #A06F36",
"a. c #A3743C",
"s. c #AA783E",
"d. c #E3453E",
"f. c #E8483B",
"g. c #A02448",
"h. c #BA2D42",
"j. c #BF3142",
"k. c #BD334C",
"l. c #C32D42",
"z. c #C92A45",
"x. c #C23242",
"c. c #C43349",
"v. c #CE3951",
"b. c #E63D45",
"n. c #F03E4E",
"m. c #8D6A4E",
"M. c #9C7242",
"N. c #A27643",
"B. c #A57945",
"V. c #AB7C44",
"C. c #AA7D4A",
"Z. c #B07D43",
"A. c #81726F",
"S. c #DE4544",
"D. c #D95352",
"F. c #E54544",
"G. c #EA4445",
"H. c #E54943",
"J. c #EB4946",
"K. c #E54449",
"L. c #EA454A",
"P. c #E5494C",
"I. c #F24446",
"U. c #E84653",
"Y. c #F14551",
"T. c #FC6656",
"R. c #FE665C",
"E. c #FE695B",
"W. c #AF814A",
"Q. c #B68347",
"!. c #AB998C",
"~. c #B39B8D",
"^. c #A79894",
"/. c #AA9C94",
"(. c #AC9D9A",
"). c #B29B95",
"_. c #B39B97",
"`. c #B3A28E",
"'. c #A9A19A",
"]. c #B3A19B",
"[. c #B09CA5",
"{. c #B5A4A4",
"}. c #C6BBB6",
"|. c #CABCB7",
" X c #C7BCB8",
".X c #CABCB9",
"XX c #D0BEBC",
"oX c #C2C0B4",
"OX c #C7C0BA",
"+X c #CCC0BD",
"@X c #FEF8BE",
"#X c #96D6DC",
"$X c #98D9DF",
"%X c #B4C6CA",
"&X c #B3CACE",
"*X c #BAC8CB",
"=X c #B1CDD1",
"-X c #8FDCE2",
";X c #92D9E5",
":X c #9CDDE4",
">X c #92E1E8",
",X c #D5D8D1",
"<X c #DCD9D5",
"1X c #DEDAD4",
"2X c #E0D5CF",
"3X c #E2D6D2",
"4X c #E2DAD4",
"5X c #E8DBD2",
"6X c #E4DDDA",
"7X c #D1EDDE",
"8X c #FCFBC7",
"9X c #FFF7CE",
"0X c #E3E0DB",
"qX c #C8FEF8",
"wX c #CDFFFF",
"eX c #D1FFFE",
"rX c #DBFDFF",
"tX c #E8F2ED",
"yX c #EBEFF3",
"uX c #E5F2F1",
"iX c #EAF2F4",
"pX c #EBF3FE",
"aX c #F9F6F4",
"sX c #F8F9F6",
"dX c #FDFCFA",
/* pixels */
"M.F F F y.F D k x v b b k C ,.: > > > : : : : : : : : : : : : : : : : : : : : : : : : : : > : : : l l u.0.0.a.B.B.a.y.D q.M.B.M.",
"W.W.C.M.u.N F 2.C w.N.e.Z ,.<.: , * : : : : : : : : : : : : : : : : : : : : : : : = : : > & > : > l B a.b N r.i.B.a.M.b N M.C.W.",
"C.M.q.M.B.A F V.0.u.p.p.0.Z l :   4X4X4XOX6X<X4X4X4X<X4X<X4X4X4X1X4X4X4X4X4X<X<X1X1X}.4X<X1X    : 4.,.t.,.D r.r.i.u.w.v S B.W.M.",
"m.q.S F w.w.q.B.A u.t.u.B C 4 :   <X4X4X X<X3X3X6X4X4X4X5X4X4X4X4X4X4X6X4X4X4X3X6X6X+X2X6X1X    : t.t.r.t.9.r.w.9.C 9.q.F y.M.m.",
"9.9.C q.q.w.9.u.b u.0.e.C M n :   4X4X3X.X.X+X.X.X.X.X.X X.X}..X.X X.X.X.X.X.X.XOXOXXX3X6X1X    : e.<.,.r.2.t.u.9.A M.q.w.M.F w.",
"w.F N M.M.u.r.C c r.t.0.A ,.4.=   1X4X4X.X5X6X5X<X3X3X3X3X3X3X4X3X4X3X3X3X3X3X3X5X6X|.4X1X1X    : 6.e.t.r.0.i.a.9.q.i.w.w.F N F ",
"M.D k b D 9.q.w.2.C c x ,.p.r.:   4X4X6XOX+X.X.X.X.X.X.X}..X.X.X X X.X.X.X.X X.X.X}.}.4X1X1X    : ,.3.t.w.4.u.i.9.A r.9.q.F N 9.",
"i.w.w.9.C V.Z.a.N.r.C C r.6.r.=   4X4X5X.X.X.X.X.X.X.X.X.X.X.X.X.X.X.X.X.X.X.X.X.X.X.X4X5X1X    : >.<.3.,.M c D 0.q.i.s.W.Q.D M.",
"i.r.t.w.x u.u.a.a.a.,.x ,.r.6.:   4X4X4XOX6X1X4X<X4X4X4X<X4X4X4X4X4X4X4X4X1X4X<X1X<X X4X1X1X    = M i i k x M A 9.w.r.9.C N c w.",
"i.r.w.r.x t.i.t.e.u.0.C 3.4.,.:   1X4X3X.X.X.X|.|..X X|..X.X.X.X.X.X X.X.X.X|..X.X.XXX3X6X1X    : 7.0.A z A r.a.4.0.N A N C A c ",
"q.b Z 2.x 0.0.w.e.,.Z <.6.6.B :   4X4X1X.X5X6X4X3X3X4X4X3X3X4X3X3X4X3X3X4X4X3X3X6X4X|.4X1X1X    : 4.4.e.4.D 0.r.0.A u.a.i.t.u.b ",
"0.b 2.u.,.0.0.A C l 3.u.t.t.4.:   4X1X6XOX6X4X4X4X4X4X4X4X4X4X4X4X4X4X4X4X4X5X3X4X1X}.4X1X1X    : 6.6.e.0.e.M 4.B x 0.t.t.i.q.v ",
"l C r.e.4.e.r.,.c B e.e.t.t.4.:   4X4X4X.X|.XX.X.X.X.X.X.X|.|.|..X.X|..X.X.X.X|.|.|..X3X5X4X    : 4.0.<.Z 4.0.t.e.4.A C B 0.C k ",
"2.<.,.,.e.r.0.<.b C 4.e.4.0.4.=   4X4X4XOX6X1X4X4X4X4X4X1X4X4X4X4X4X4X4X4X4X4X1X1X1X|.4X<X1X    * 4.0.,.M 4.4.0.0.A 0.b C 4.c b ",
"Z Z ,.2.0.e.0.6.V ,.6.e.<.,.e.:   4X4X4X.X|..X.X}.|..X.X|.|..X X.X|.|.|..X|.}.|.OXOX+X2X6X1X    : e.e.4.c c z l i a s l i Z 0.A ",
",.,.Z Z 4.V ,.,.,.4.A ,.6.4.,.:   4X4X4X.X5X4X4X3X4X3X4X1X3X3X4X1X3X3X1X3X3X4X4X6X5X|.4X4X1X    : z l Z A a B Z 4.4.A B l ,.z 4.",
",.<.B s l z n c ;.,.V 6.6.Z a :   1X4X4XOX6X3X5X4X4X6X4X4X4X4X4X6X1X4X4X4X4X4X4X3X<X}.4X4X6X    : 4.A <.V n C 6.6.7.t.4.<.Z M 6.",
",.V M a a n Z 7 c 4.<.,.,.;.B :   1X4X4XOX+X.X.X X X X X.XOX.X.X X.X.X.X.X.X.X.X}.}.}.4X1XaXo X : <.6.4.,.n a <.<.t.7.n B <.>.>.",
"i c V ;.m 4 >.c i i l l B ,.B :   4X4X<X X3X5X<X4X5X6X5X6X4X4X4X4X4X4X4X4X4X4X3X6X5X+X3X6X0X    : ,.;.4.<.c 7 d V V 6.n s ,.B 5 ",
"V <.6.<.c 1 m :.>.a a a a 4.a :   6X4X4X.X.X.X.X|.|.|.|..X X.X.X.X.X.X.X.X.X|.|.OX XXX3X5XaX    = Z B a 5 5 a n d a <.7 5 n B a ",
"6.6.8.6.a 2 >.5.7.4.;.a i :.n :   4X4X4X.X|.}.}.oX|.+XoX|.|.OX|..X|..X|..X.X.X}.}.}.|.1X4XsX    : V z 7 l c =.;.h i a d n V >.V ",
":.:.7.;.5 s :.7.7.V d a 5 c n :   1X4X4X X6X4X5X5X2X2X2X4X4X4X4X4X1X4X1X4X3X4X4X6X5X|.4X<XsX    > 4.a a :.:.<.m B i g =.>.=.-.V ",
";.>.g d 2 g ;.7.7.j a a a i a :   4X4X4X.X.X.X.XOX+X|.OX|.|..X.X|.|.|.|..X.X|.|..X.X|.3X4XdX    > <.7 l ,.7.:.=.=.V :.j j h V V ",
"m j d 3 2 g :.7.7.:.d V :.4.:.:   4X4X5XoX4X0X1X2X4X5X2X4X4X4X4X4X4X4X4X3XdXdXsXsXdX+XdXsXdX    : n 5 V V :.:.=.V j >.h d a s V ",
"a V :.g 3 g $.-.:.-.B V 4.6.6.>   <X5X2X|.4X5X3X<X1X1X1X<X<X4X1X<X<X<X4X6XaXdXaXdXdXXXaXdXaX    : 7 7 5 5 7 s V j g s 2 3 2 2 i ",
"p -.5.j a h j V =.=.3 i ;.6.<.=   './.{.^.].(.~.)._._._.).)._._.).).~.).^._././.^.^.'.{.^.(.  X : >.<.6.;.p 2 3 2 3 3 6 3 2 2 2 ",
"p j %.$.p s 5 j ;.5.g a ;.;.m = . A.P I I ` | ' O...O.} } X.} O.O.O.} ] } ] } ' ' ' m.I P I     : V 6.6.<.:.=.g g j s j $.p p a ",
"2 $.%.%.h 3 a -.-.;.=.d a c i :   ^._.(./.U.K.P.F.d.F.K.G.d.F.G.F.F.F.d.G.G.J.P.K.S.).(._.^.    > a 1.<.6.;.g 5 g ;.$.j $.j j $.",
"2 h $.$.$.3 3 $.=.;.>.B 2 d a :   (./.(._.K.d.G.K.F.F.F.F.F.F.F.F.F.F.d.H.F.P.F.J.d.~.(.)./.    > l n c g :.s 4 &.%.$.$.$.$.f h ",
"2 p $.$.f 3 2 h ;.V V s n m >.:   (.).'...P.K.F.F.F.F.F.F.P.P.F.F.F.F.F.F.F.F.F.P.G.O.(._./.    - z 7 7 g 6.m d $.6 $.$.h s 3 6 ",
"6 3 3 < 1 1 3 h %.V :.a M B <.:   (.)./.@.S.b.#.F.F.F.F.F.F.F.F.F.F.F.F.F.F.F.d.F.L.| ^._.(.    : >.m a 7 a 7 6 6 1 3 3 3 3 3 6 ",
"f 6 6 f f 6 3 g V j <.5 a a ,.: . (.)./.b.P.U.J.F.F.F.G.G.F.F.F.G.F.F.K.P.F.F.G.d.b.S.[.(.(.    : ,.l <.<.:.;.$.6 6 6 3 1 1 6 f ",
"p $.$.h g f $.s h =.V 5 V a <.:   /.).).L.o.] | | | | O.| ..| X...X.| | ..| | @.X.' T.[.!./.    : >.5 V V V :.=.i j &.&.&.h f f ",
"f $.f $.$.g g j p 7 7 n :.c n :   (.).!.P...h.j.} j.] } O.h.O.} O.] } } } } h.l.{ l.E.[././.    : >.B 4.6.;.V s 2 &.&.*.*.j p h ",
"$.6 $.%.%.$.6 6 a a g 7.6.B >.:   _.).`.b.o...' } ..j.] h.x.] } h.x.x.x.j.} x.c...{ R.[.^./.    : ;.m ;.:.:.j 7 2 =.h &.&.f 6 f ",
"f < $.%.%.$.a g s V -.6.<.,.<.:   (.~.!.D.G.F.K.K.P.F.F.F.K.F.F.P.F.H.H.H.H.H.S.F.J.T.^.'./.    : z a V =.V V s 2 %.3 $.$.f 3 f ",
"f < &.$.g p 6 3 1 4 5 p n m <.>   (.).x.n.F.G.L.F.F.F.F.F.G.T.R.K.R.E.E.E.E.R.R.R.T.E.x.z./.    : 4 1 4 a m =.h 3 s < h $.$.3 6 ",
"6 < 3 3 < 3 g &.j g a 4 1 4 n :   _.).' P.P.K.S.F.G.F.G.F.F.R.R.d.R.E.E.E.E.R.R.E.E.E.+.X./.    : <.;.7 5 a =.=.p 6 3 s %.h 3 6 ",
"%.&.$.$.s h $.1.1.:.:.s a c C : o ~./.K.O.:X>X-X;X;X;X;X;X;X;X;X;X;X;X;X;X;X;X;X;X#Xh.G.d.!.o   , 8.V a g n =.=.g 2 g s 6 6 1 6 ",
"%.*.*.%.&.=.1.1.1.=.n m :.6.<.; o ).!.K.' :X:X#X$X$X$X$X$X$X$X#X$X$X$X$X$X$X#X#X:X$Xh.P.G.~.o   & <.V d m m =.h j 2 j $.g 6 6 f ",
"1.5.1.:.:.:.1.&.;.j g :.6.6.7.:   l.l.S.{ qXwXwXwXwXwXwXwXwXwXwXwXwXwXwXwXwXwXeXwXwXc.F.S.[   X u <.s n ;.V =.=.V 2 $.1.5.s a h ",
":.:.-.;.1.=.-.=.;.V m 7.7.6.<.>   x.' F.' wXwXwXwXwXwXwXwXwXwXwXwXeXwXwXwXwXwXwXqXrX..H.J.O.    - 4.V >.6.:.;.V d 2 =.5.1.s 5 ;.",
"1.:.:.j m p g m d s d 6.6.4.,.  y b.Y.@.} wXwXwXeXwXeXeXeXeXeXwXeXeXwXeXeXeXeXeXwXeX..@.o.b.y e ; ;.>.:.:.;.h d a a :.7.:.g 7 V ",
"5 a z >.a 4 j >.V a a :.,.:.<.. e L.S.} j.wXwXeXeXeXeXeXeXeXeXeXeXeXeXeXeXeXeXwXwXrXx.] [ H.r q ; 4.;.V ,.:.;.V 5 s V 5.m d a 5 ",
";.V n >.5 a 6.7.<.m m V B m a   e 0 8 U.' wXqXwXeXeXeXeXeXeXeXeXeXeXeXeXeXeXeXwXqXwXz.U.d.8 q e : 6.<.m :.6.:.V 4 p V 1.n a a >.",
">.V n a 1 Z 8.8.1.>.>.>.<.,.n   q 9 y U.{ eXqXrXwXwXwXwXwXwXwXwXwXwXwXwXwXwXwXrXqXrXk.n.b.9 q q > 0.,.m ,.<.>.c 5 c s <.n 5 n <.",
"6.4.>.i 4 m <.6.<.<.>.n a n M , X c.l.b.} } [ h.] ....] ......] ..] ..] ..] ..l._ x.+.S.F.h..   * ,.n a V 4.6.;.M V V ,.n z n <.",
"6.4.B z a c z :.<.<.V ,.B 0.<.:   z.o.P.] } [ @.| | ..| | ..| | | | | ....| ..l._ [ _ n.d. .    = c l 4 ;.r.6.4.;.>.,.6.z >.a ,.",
",.4.Z l l l 5 ,.6.4.B ,.V 4.4.; X ` { F.L.Y.Y.#.K.K.K.K.K.K.K.K.K.P.K.P.K.K.P.b.I.K.I.K.H.[   o , 0.>.c >.,.<.6.;.,.6.4.B 0.l 4.",
"z Z l 4 n C z 4.6.,.V ,.Z 4.0.= . T ( H.f.G.F.L.P.F.K.S.G.F.F.F.F.F.G.S.F.F.F.L.S.I.d.S.S.T .   - <.,.,.,.4.6.M Z ;.4.4.c 4.a l ",
"A 4.A A 6.4.,.z k l ,.n ,.0.,.=   y U ..O.@...l...` ] ..] } X.' ' X...l.] ] O.l...z.] | { y     , <.<.,.c M C a e.4.e.0.b ,.C l ",
"B A ,.e.e.e.e.C B 4.e.b Z ,.,.;   0 9 h.] ' @._ j.} } x.} O.h.l.h...} j.} h.j._ +.` k.h.] q     - B ,.Z l ,.4.l t.4.e.,.,.t.a.,.",
"A b c r.e.r.Z A l A 4.A i c A ; X e 0 @ # g.8X8X( E ~ ^ E E E E E E W ^ ~ / ^ @X8X( $ @ @ e     , c M c Z t.3.l ,.e.r.p.a.s.s.p.",
",.b l 0.,.0.c M ,.r.e.t.,.B 6.=   e w H J + Q ( / 8X8X9X! ^ ^ ^ ^ ^ / 9X8X8X9X^ E # K K J 8     : c ,.3.p.a.a.l N t.e.a.Q.s.s.r.",
"b D x q.2.2.Z 2.9.r.a.r.B V ,.> . c.} + H # ( ~ R 8X8X9X/ / / ^ R R / 9X8X8X9X~ E @ H @ # k..   ; z c 6.e.t.r.b c u.A i.Z.B.a.t.",
"x C x x v c Z v Z t.a.0.x M Z :   h.+.H K # W ( ( ) ) / E / R R R R ( ^ ) ) ^ ( T @ H H K h.X   : z l M ,.,.2.Z C b x 0.r.a.r.i.",
"k 2.D C 9.C e.b N t.t.0.,.e.t.* o v.] # L $ R W E Y Y / R E E R R W E ~ Y Y ^ Q T + H J G c..   > a l V 4.r.9.l b 2.2.9.9.A v v ",
"C M.i.M.M.r.N.2.b u.t.e.0.e.t., o ,X7X8 y e r w e 8 8 t 8 w w w w w e y 8 8 0 w r q t w q ,XX o ; l A 0.,.0.9.D 0.F q.A C u.q.F ",
"u.y.u.u.N.i.N.2.x A w.w.e.r.6.>   uXuXtXpXtXuXpXuXiXyXiXyXuXuXuXiXiXuXiXsXiXiXpXiXiXuXtXiXuX    : l 0.6.t.0.N B r.W.V.B.9.w.i.r.",
"w.B.N.C.B.N.D C x c c ,.3.e.6.>   %X=X&X%X&X%X&X&X%X*X&X*X&X&X&X*X%X%X%X&X&X%X%X&X%X%X&X%X&X    > l 0.e.t.A D x 2.C.B.Q.w.v b D ",
"2.m.a.B.B.M.b 9.r.i.r.r.,.c c : o &X=X&X&X&X&X&X&X&X&X&X&X&X=X&X&X&X&X&X&X=X&X&X&X&X=X&X=X%Xo   > a e.r.t.4.N x C M.y.B.M.F S F ",
"N N q.C S N k D u.a.i.u.e.,.,.:   *X%X&X&X&X=X&X&X=X=X=X&X=X&X&X&X&X&X=X=X&X&X&X&X=X&X&X&X*X    : Z t.,.b l z x F M.y.y.M.M.M.F ",
"N S B.M.q.F D v r.i.a.u.C 4.,.: O X                                                         O % : A x C b b A N A N N 9.m.N S S ",
"F S F F 9.w.F v u.u.y.u.l 0.C : % % % % % % % % % % % % % % % % % % % % % % % % % % % % % % & & = l b 0.a.i.i.a.N.9.F q.w.N N F "
};
