/* XPM */
static char *_5334a8b51b54c58bb4484e061b044e9HdlUn20AdmF9dPjF[] = {
/* columns rows colors chars-per-pixel */
"64 64 237 2 ",
"   c #000105",
".  c #03050A",
"X  c #05080B",
"o  c #060A0D",
"O  c #090A0E",
"+  c #0D0F0C",
"@  c #050B13",
"#  c #0B0D12",
"$  c #140D19",
"%  c #0D1115",
"&  c #0C131B",
"*  c #081719",
"=  c #111215",
"-  c #13151A",
";  c #191619",
":  c #141A1D",
">  c #1A1A1E",
",  c #251418",
"<  c #14211D",
"1  c #28281F",
"2  c #0A1923",
"3  c #141B22",
"4  c #171A25",
"5  c #1B1D22",
"6  c #220F2D",
"7  c #251B27",
"8  c #1C2225",
"9  c #112C27",
"0  c #1C232A",
"q  c #1A2728",
"w  c #212225",
"e  c #23252A",
"r  c #242A2D",
"t  c #292A2C",
"y  c #2E2D2E",
"u  c #282734",
"i  c #232B32",
"p  c #2B2D32",
"a  c #2D3235",
"s  c #293437",
"d  c #35373A",
"f  c #4F3311",
"g  c #523614",
"h  c #563916",
"j  c #5B3A13",
"k  c #563A19",
"l  c #5B3D1A",
"z  c #623E15",
"x  c #603F19",
"c  c #44292F",
"v  c #5F401D",
"b  c #63421B",
"n  c #6B4518",
"m  c #6A461B",
"M  c #754A16",
"N  c #744B1C",
"B  c #7B4E19",
"V  c #7C501D",
"C  c #5D4324",
"Z  c #644622",
"A  c #674926",
"S  c #684823",
"D  c #6B4B25",
"F  c #6B4D2A",
"G  c #724D23",
"H  c #784F21",
"J  c #704F2A",
"K  c #6D502E",
"L  c #755025",
"P  c #7C5424",
"I  c #74522B",
"U  c #7B552B",
"Y  c #7E592D",
"T  c #715431",
"R  c #785630",
"E  c #7B5A33",
"W  c #343A44",
"Q  c #3B3D42",
"!  c #2D4547",
"~  c #3C4446",
"^  c #46464B",
"/  c #50504F",
"(  c #494B52",
")  c #555559",
"_  c #5E5F64",
"`  c #656164",
"'  c #67676B",
"]  c #6E6D73",
"[  c #76787B",
"{  c #AA231E",
"}  c #AF2D2E",
"|  c #B52A2A",
" . c #AA3737",
".. c #B63838",
"X. c #D81C1B",
"o. c #EC1219",
"O. c #E71A1B",
"+. c #CE221E",
"@. c #DC261C",
"#. c #E7221C",
"$. c #CF1F2A",
"%. c #DC1B24",
"&. c #E41D23",
"*. c #EA1B26",
"=. c #F31A27",
"-. c #F51C32",
";. c #C9272A",
":. c #DD2424",
">. c #DD242B",
",. c #D62828",
"<. c #DB2C2B",
"1. c #CA3229",
"2. c #D5342B",
"3. c #C62C35",
"4. c #D72A33",
"5. c #C73638",
"6. c #D73437",
"7. c #E42324",
"8. c #EB2323",
"9. c #E42C24",
"0. c #E92B24",
"q. c #E3232C",
"w. c #EA232C",
"e. c #E42B2B",
"r. c #EC2A2B",
"t. c #F4252A",
"y. c #EE342F",
"u. c #E82932",
"i. c #F22B34",
"p. c #E43438",
"a. c #83541C",
"s. c #89581E",
"d. c #905C1E",
"f. c #815624",
"g. c #865924",
"h. c #8A5B24",
"j. c #815728",
"k. c #835B2C",
"l. c #895F2D",
"z. c #905E25",
"x. c #835F33",
"c. c #AA423F",
"v. c #B8453A",
"b. c #8D612D",
"n. c #966326",
"m. c #92642D",
"M. c #9A6629",
"N. c #866134",
"B. c #8B6334",
"V. c #876338",
"C. c #8D663A",
"Z. c #8F693C",
"A. c #926633",
"S. c #956935",
"D. c #9B6C37",
"F. c #946A3A",
"G. c #996E3B",
"H. c #9D713E",
"J. c #A06F36",
"K. c #A3733D",
"L. c #AA783E",
"P. c #B83A43",
"I. c #CF3A42",
"U. c #EF3742",
"Y. c #AC4746",
"T. c #B84846",
"R. c #B55450",
"E. c #956D40",
"W. c #9D7341",
"Q. c #A57845",
"!. c #AA7942",
"~. c #B07E44",
"^. c #B9615D",
"/. c #A8696A",
"(. c #C5534F",
"). c #DE575D",
"_. c #C8615D",
"`. c #D17370",
"'. c #B28249",
"]. c #D6817D",
"[. c #7B7C80",
"{. c #CA7B80",
"}. c #798A88",
"|. c #8A8D91",
" X c #96969A",
".X c #B79A9F",
"XX c #9B9EA2",
"oX c #9FA2A5",
"OX c #A4A5AA",
"+X c #A7A9AA",
"@X c #B0AFB2",
"#X c #B5B6BA",
"$X c #DB8986",
"%X c #E58F8F",
"&X c #D6A795",
"*X c #E9A79B",
"=X c #C7ABA7",
"-X c #F7B4AB",
";X c #F4B6B1",
":X c #BCCDBD",
">X c #D7CBBD",
",X c #FEC2B7",
"<X c #BBBDC1",
"1X c #C0BDC4",
"2X c #BCC4C5",
"3X c #C6C8CB",
"4X c #CBCDD2",
"5X c #D2CFD1",
"6X c #D4D6D9",
"7X c #FBC9C7",
"8X c #FDD7CD",
"9X c #FFDAD6",
"0X c #DAE4DB",
"qX c #E8E8DB",
"wX c #FEE5DA",
"eX c #DDDDE4",
"rX c #E8D8E3",
"tX c #DEE2E6",
"yX c #E4E5EA",
"uX c #E5E8E8",
"iX c #EAEBED",
"pX c #FBEAE8",
"aX c #EEF0EB",
"sX c #FAF4EB",
"dX c #ECEDF2",
"fX c #EBEFF5",
"gX c #FAEDF5",
"hX c #EDF1F4",
"jX c #EDF9F7",
"kX c #F2F3F5",
"lX c #FCF4F3",
"zX c #F5FAF2",
"xX c #FCFBF4",
"cX c #F4F4FA",
"vX c #FDF5FA",
"bX c #F5FBFC",
"nX c #FCFDFE",
/* pixels */
"W.E T E Z.E R C Z A F F C I k.b.m.k.l P P P h.j.b P s.s.s.B M M n a.a.B M N f.n N g.f.k P x l.l.b.Z Z D.B.B.K.!.!.K.F.E B.W.W.Q.",
"'.'.Q.W.H.K N.E I S.K.S.U k.N.S D j.L b.b.h.P n g s.h.d.d.B n B M B B a.a.N N B b l x G l.G G Z Z b G K.F F S.H.Q.H.W.F T W.'.Q.",
"Q.W.E.W.K.k.A k.S.C.l.G I b.D P b.A.Z B.D.S.N.U k.m.m.!.~.j.S k.P l.m.b.R A A.B.A.k.U l.m.m.x.S !.!.K.!.S.I I S.M.x.I !.T Q.Q.Q.",
"E.V.I C.F.b.I b.b.F.b.U k.m.U k.b.S.L b.S.G.F.: 5 .   - 5 l.x.S l.J.Z.x.C.l.G.x.J Z B.D.C.x.G.J G.G.K.K.K.k.Z k.S.C.A F.E E.E.E.",
"V.V.K K.K.k.A k.S.A.A a   # 3 r d B.I b.B.B.B.= # . X + t m.Z J A.S.E.F.K.K.B.k.D G A.S.G.A.I A D G.S.S.D.b.I l.b.S.F D.E.E.E Z.",
"V.E K S.D.B.I k.l.F.A > > : 4 % ; w e t =       . #     = B.G U l.S.x.B.N.t = l.J I b.A.V.B.C.B.D B.B.C.k.I l.b.b.B.F B.E.T F E ",
"W.R C S.Y U l.k.U l.m.b.# # 3 . O X X : > 8 - 8 o : #   # y U b.A.x.x.B.t > . m.U g.m.A.!.~.K.K.D A.Y I Z B.D.F.N.F.J F.V.E F V.",
"E.Z.C.I Z B.D.Z B.D.C.N.O 4 & % O [ nXnXuX+X^ #   iXOX  . . O X B.B.5 ; # #   d Y I Z B.G.Z.N.G.F S.k.D I B.S.G.S.I A S.'.'.R W.",
"G.F.F.D J k.U l.m.m.E.F.B.- % . X   3XnXnXcXvXnXeXcXfX|.$ #   X B.x.O O . $ . . k.D J A.A.G.F.I A A.b.G I b.A.V.V.A.B.I I J F C.",
"K.F.A.D U Z B.D.Z.x.B.N.4 4 3 . . ; +XnXnXkXbXuXiXnXdXeX  O     O $   $ @ . O 7 l.J U h.A.B.N.C.B.b.A.P l.m.B.!.'.H.K.S.F I R F ",
"C.D U x.U J B.S.G.F.Q.3 4 4 . . ) nXkXvXnXnXaX5XO - @XeX]   =   . .   # ;   5 5 m.U k.B.A.!.!.K.K.U k.j.b.P b.S.C.N.F.F G.D.S.F ",
"B.J k.Z B.L b.A.V.B.5 0 0 0 4 @XnXkXnXnXnXnXkX_ - = dXhX6X7 O . . O - e |.O e ; B.g L h.f.b A b Z P S U b.P m.D.G.F.I F G.H.B.F ",
"Z I S.I A.A.G.F.V.p < s a 0 nX6X> uXnXbXbXnXiX. O   - . 6X  = . O O . #XhXoX4 i 7 k j.b.M.h.l.b G j.b G b.g.g.B.B.B.B.N.P b.I C ",
"k.l.k.I b.A.B.N.: q q W Q iXhXOXa : t 6XcXkXbX# 4 fXyX@ W fXXX%   - 4XhXfX4X% - e n g.M.M.j.m Z k P m v v v m C.L.'.H.L.I b.D F ",
"U U k.A.A K.~ W q 2 8 2XtXnXnXQ 8 & o % 5 a |.5 #XbXeXyX8 bXtX& # ' fXhXnXnXt - s B h.M.n.P b b f P g.P v m v S.F.G.K.K.v P B.k.",
"k.k.U F.A 8 % 5 i s < _ 6XhXcXbXtX: @ - @ 4 . O dX^ u yXp iXhXe % 5 dXeXcXdX<X= w y Y.Y.^.x.B.N.k j.m.M.b.b.b S.D.G.F.S.v N.S b.",
"j.l.P x.D p 3 i i s p 0 i e <XaXnX) : 3XuX X5 - fX( 4 cX4 dXnXp t . 7 dXnXnXhX- y ; `.2.4.P.B.x.m b.M.M.P m m S.B.b.A.A.b.P D b.",
"l.P G G.F B.a : & 3 * 0 3 0 kXnXbXt d tX|.nXe e ' nXcX] . yXnXnX( 5 5 # iXcXbXe 2 i e.2.*.u.4. .N g.M.m.P m m U B.A.Y I I b.Y g.",
"v G P I A l.S.S.A : q 3 2 a nXnXdX; |. Xa eX. ( oXa 5 w  X<XyXyXhXOXa u O cXhXp - $ ,.5.<.*.t.#..._.N.N.k j.n.S S.S.k.S S g.P k ",
"L h.m.C.N.N.b.F.A e q @ $ bXnXiXuX% [ #X  bX. 4XcXnXnXnX% - Q bXbXbX_ 4 @ ^ cX|.- 5 /.v.1.*.#.8.q.(.N.N.b h.M.D S.b.b.D l G I b ",
"h.M.M.K.K.k.U k.m.b.p i 4 8 d 6XnXp t nXiX3Xe nXnXkXbX  - e 7 O ' hXeXnX# a d iX9 * ; ;X_.U.,.8.=.t.5.C.V g.M.k S.m.S.P L P g.P ",
"l.b.M.B.D.Z B.D.Z.N.V.' a 5 8 O cXtX/ 8 o > #XcXbXnXO   # bXcXp O   <XnX X# = cX$ $ * xX9X*X..>.*.%.>.I.V.N.N.g P j.U j.f.P g.P ",
"g.g.N b.b.L A.S.G.F.B.N.X 3 4 2 iXnXnX6X#X6XnXnXyXe u 7 XXcXhXnX+X-   ( #X> = nX7 - 8 yXlXgX;X4.=.:.>.<.5.B.N.k S L Z k.V V P V ",
"N L N C.V.I b.m.V.N.V.t q 3 0 0 a OXnXiX@X) 7 d t u t _ bXdXyX4     # = dX% # vX|.4 e  XxXxX,X;.X.7.-.8.2.} N.m G P b D m v N P ",
"b a.h.G.F.L.'.H.K.= : <   8 & 3 - ] kX@X8 8 8 p : : ~ nXfXbXXX- - . # - cX: % cX0Xq W ` pX&X} <.@.w.t.:.:.6.N.N k j.S v j k k l ",
"n h.n.V.V.N.< % 8 w e = - & - 3 ; 8 bXoX- #XnXnXnXkXuXuXnXbXe # # - - # cX4 e hXzX~ ] pX{.;.=.O.7.*.t.0.#.t. .N.g P g.P j h h j ",
"b V a.B.+ p . % @ i < s   ) e 5 % % bX@X= 6XxXcXzXnX3X> e . . O - - 5 t cX- e cXkXpX,X..u.=.*.;.,.6.I.@.r.8.p.T.k g.b.M.a.n b b ",
"j a.s.a . & @ . & q s 3 bXnX; + O % 6X@X: 5XnXnXnXxXoX+ # =   O - # > Q fX: p iXlXgXv.<.&.=.-.X.p.`.,X1.e.q.e.5.m g.M.M.a.B B s.",
"g B a.w = . . @ 2 ) 0XnXnXvX/ 7 - - |.#Xe 4XbXw ^ 3X}.  o o . 2 2 @ @ ! nXw ; xX$X..#.o.o.%.%...9XgXpXR.2.@.O.e.N h.M.n.a.a.n V ",
"g n a.B.e w . 3 0 ( bXiXnXnXvXw = 7 d <Xt 6XbXp ; % @ X O O % % 4 i e /.lX#XwX_.2.+.0.O.>.4.T.9XpXdXlX,X} 9.#.9.c.j f.b.B n z z ",
"z j j S.C.A . - 2 3 a nXkXnXnXnXr 5 : 4Xi oX4X^ + % : o % * - q u 2 ) 5XgXwX%X6.X.8.o.>.5.).9XxXnXbXxXpX_.y.#.:...m h.M.j j g z ",
"M z z z.S.D a a 2 0 3 5 nXiXcXxX[ : # nX/ e 0 0 : % - 8 % @ q Q iXnXjXiX8X(.,.+.9.7.&...`.=XxXnXnXvXvXsX-Xp.#.:.U.N d.n.j j z M ",
"n a.a.Z k.m.C.A a q 3 3   2XzXnX#X: e bXcXnX#Xs 3 i q 2 * a q iXnXnXpX;X| &.&.q.$.6.P.7Xc O bXbXnXnXvXxXwX3.9.@.y.A.s.s.s.B M M ",
"M B B I b.b.S.F A i W 3 q X zXnXyXw 7 hXhXbXhXbX|.q W i 9 8 oXnXiXpX*XP.q.%.>.-.u.5.7X+ 7 W 4XcXnXnXxXzXpX5.9.2.y.^.B.s.s.B n B ",
"a.n a.b.b.b.N.D A V.- y # 4 % aXiXe e # ' 3XbXjXbXnX<X~ ; tXuXxX9X$X>.%.&.%.,.>.`.pXvX! * & ' cXxXnXnXxXlX} q.w.9.T.V N d.n j B ",
"M f a.G.C.V.F.K A I D s W $ > * [ - t r 4 0 $ d OXgXcXnXnXiXbX8XY.6.&.:.*.*.I.&XpXxXcX+Xe 7 # nXzXnXnXnXnXT.>.w.9.v.j g a.M j M ",
"M f a.M.G.F.I A F Y k.B.  , % * - 3X|.p d d 4 3 0 4 oXjXbXpX8XP.1.o.O.O.>.I.).vXxXzXnXyX- 0 5 nXhXnXnXzXnX(.u.q.r. .V n a.a.j z ",
"z f j A.B.N.A.N.A x.K.B.9.=Xs : - 5 0 nX|.5 s @ 2 @ : d / %X| *.O.#.O.u. .8XpXgXvXnXnXnXq 2 3 dXbXnXbXxXxX(.u.i.0...h.s.a.V j z ",
"s.s.a.A.!.'.K.K.N.S.m.T.| %X` , > 5 Q |.cXnXs q * * y , -X| %.=.O.@.$.| ,XxXbXrX@X X] ~ q 2 q t / #XxXnXxX(.e.w.9.P.h.d.b l g b ",
"g.h.n.b.b.L.'.K.K.g.S...#.+.`.=Xd 7 - d ' nXzXrX( 3 ,X`.;.7.u.%.,.>._.8XzXQ < i @ q < - e $ Q / w [ zXxXsX..q.w.9.R.h.h.M z z M ",
"h.n.h.D.S.S.F.B.G N.b.v.0.y.1.L.pX% W : r q xXlXgX7X| <.u.&.%.4.I.`.nXeXfXq XXnXnX5 [ bX6Xo <XxXw p ' zXsX3.:.r.=.x.P H n.n x P ",
"h.h.g.B.A.S.Y U b.b.b.`.y.0.2.{ ;XkX( y q : < pXpXP.4.,.=.*.u.;._.wXcXbXr - iXhXnX] Q nXcXe OXnXd Q d w &X5.y.r.U.V.j.n z.x z g.",
"n.h.h.Z.N.G.F D.A.S.I D 2.0.0.2._.xXnX[ r p / *Xv.o.-.%.O.>.5.7X=X}.y d o q nXvXbX2Xw nXnXp ] nX< q bX>X*X2.0.8.u.x.j.k h.G x P ",
"l b n H.F.I D S.D.b.Y N.v.e.r.9.| sXvXiX:X.X`.2.@.@.O.%.I.`.wX/ u Q  XnX3X8 yXbXbXaXr nXbX^ ) aXy }.kX8X(.e.7.@...x.b k H N x l ",
"g.P G B.N.C.N.U F Z N.D.c.2.0.e.2.8XpXxX9X*X4.*.*.:.1.p. .wXxXbXeX7 dXkXbXi [.yXnXnXa cXdX- s 5 1 jXsX-X3.e.r.p.Y.N.b k G x b j.",
"U P G !.!.Q.K.A.I I m.m.V.2.#.9.r.Y.pXwX..5.@.O.*.*.| `..X) cXvXkX^ ' vXbX% e yXbXkX8 OXyXt ( ^ nXjXpXT.4.u.e.4.x.V.Z.N.G l G l.",
"S.n.P F.G.K.K.K.N.b N.S.D v.w.<.r.;.).3.:.0.w.O.%. .9XqXcXp [ nXbX6X^ [ +X4 W W ( i ~ ~ p ~ 2XvXnXxX*X2.t.u.U.P.Q.W.G.Z.J m G l.",
"b.b.P G.G.S.S.G.b.D b.b.N.N.<.9.7.e.,.;.=.=.o.p...-Xc rXbXQ - nXnXnXa w e e u 7 3 e u ( OXnXhXnXiXpXT.7.&.w.4.x.F R B.B.m j.b l.",
"l.x.P V.C.C.N.G.J F.S.A.I G ..#.t.&.*.=.=.=.U.T.7XlX^ 6 uX+Xr  XbXdX<X5 - 4XbXW u nXdXjXhXbXvXnXpX`.u.r.8.w.^.B.x.I !.!.I b.Z b.",
"Z P Z W.W.G.F.I F F.F.b.U N.B.:.r.8.O.O.7.9.R.9X; yXdX7 ) cXQ o hXbXtX- d 6XnXhX-  XnXnXnXbXhXaX%X3.8.0.e.;.B.N.C.A G.D.G B.b Z ",
"U B.U J R V.V.S.N.I F Z N.J.D (.6.:.t.*.<.2.pXxX^ ) hX3Xd kXnXy : nX( u e +XzXzX8 - kXlXxXaXpX*X;.7.8.2.6._.V.x.S.A G.D.D k.I Z ",
"I U k.B.I L.'.H.K.S.G I m.m.g.N.x.2.7.=.q.4.`.8XuXt nXaX) Q kX#Xt w a 5  Xw 3XxXfXr XXnXpXpX$X;.&.#.7.-.3.V.Z.Z.N.G.I F.k.D.K.k.",
"k.D D C.A F.D.L.K.K.N.Z N.m.D.I J 5.*.i.@.9.;.`.wXaX|.xXlXa [ q q 8 ' aXzX1 e zXcXOXp zXpX^.3.>.7.#.4.6.B.H.W.H.F.I A F.K.L.L.J.",
"Y D C S.F D.D.F.S.S.N.I b.b.m.Y k.N. .p.&.t.*.p.| ].wXsXnXw t ^ 3XgXvXiXvXOXy 5XbXsX7X`.{ e.7.7.8.i.| x.x.F U V.N.S.N.I '.L.L.S.",
"F E A N.D B.b.B.S.B.C.C.V.S.I F.A.A.G J p.*.9.O.=.q.| v.8X7XlXxXbXbXvXnXvXlX=X8X-X_.4.-.O.7.O.8.4.5.N.N.N.x.U Q.'.H.K.S.!.L.L.D.",
"D I Z S.k.C.A.Y I H.W.H.S.I F F.G.b.Y k. .4.,.t.=.=.&.:...(.].-X7XwX9X9X8X-X$XY.,.>.7.*.O.X.t.p. .V.Z.Z.N.G.F G.A.A.I G F.K.S.D.",
"C E Y S.B.m.S.Y S F R V.V.B.N.I A A x.D.N.N.6.;.$.q.&.&.O.r.7.%.:.%.;.;.3.<.u.r.*.&.@.X.q.>.;.V.B.H.W.G.F.I A S.S.B.k.k.N.E A F ",
"R H.H.U S.S.B.b.G N.I !.'.V.B.F.N.G.J G.A.A.J J | >.q.q.-.*.*.q.%.&.&.7.u.w.*.*.*.&.&.q.3.V.V.V.C.V.F.J D.B.S.I K Z N.D.I G.V.E ",
"G.F.F.b.b.m.m.m.U A.A F.G.W.W.H.F.I A F.G.B.k.l.x.T.;.6.q.w.8.&.7.8.0.8.&.t.-.o.t.u...V.C.Z.N.G.J F.A.S.I G B.U l.L S.M.N.Z.H.S.",
"F.Q.Q.U b.U k.k.Y S.A H.G.F R V.B.A.x.U N.N.C.x.G.J D.C.A.I J ;.4.6.4.,.;.;.} } ^.x.x.W.W.G.F.I F F.F.b.U N.n N.J.b k.S.N.F F E ",
"E Z.Q.Z Z S G Z P N.S B.B.N.I Q.~.K.K.A.G.Q.G.S.J D G.S.l.k.k.B M B B a.a.M N H b l z F R V.V.A.N.I D Z N.G.G m.m.I k.l.E.E T E ",
"F T V.v b G P b N D.N.B.m.A.F F.G.K.K.K.F E x.B.A.x.U F b g.D.V a.n a.a.s.s.z l m n N N.I L.'.D.K.S.G I S.m.S N.S.B.m.B.E.Q.W.E ",
"K T Q.W.V.E E A F.K.K.D.I b.U k.l.j.G b l b z l z j h j j j j z z j j g g g h N h.V g.b L L l.b.b.U F I G F R F I I F V.E.K T T ",
"E T E E V.C.E F D.F.F.F.Z B.U k.j.j.S b.z.b.g.P b l z h j j j M M z z M M z l V f.L h.v Z b g.b.N.Z F b.K.H.K.K.Q.V.E Z.V.K K E "
};
