/* XPM */
static char *result[] = {
/* columns rows colors chars-per-pixel */
"64 64 217 2 ",
"   c #020101",
".  c #0A0001",
"X  c #000B00",
"o  c #00060A",
"O  c #000012",
"+  c #21221C",
"@  c #0D0E2A",
"#  c #041527",
"$  c #0C1925",
"%  c #0B142D",
"&  c #0B1B2D",
"*  c #101C2C",
"=  c #031C33",
"-  c #0B1935",
";  c #131C36",
":  c #251E23",
">  c #0D2032",
",  c #102037",
"<  c #232426",
"1  c #262927",
"2  c #34312E",
"3  c #313033",
"4  c #323234",
"5  c #373438",
"6  c #560A1C",
"7  c #7A0F1F",
"8  c #76111F",
"9  c #4F3311",
"0  c #523513",
"q  c #563816",
"w  c #5B3A14",
"e  c #573A18",
"r  c #5A3C1A",
"t  c #613F16",
"y  c #603F19",
"u  c #540921",
"i  c #5A0A27",
"p  c #670B29",
"a  c #720B21",
"s  c #7C0D25",
"d  c #750A2C",
"f  c #6D152A",
"g  c #741225",
"h  c #73142B",
"j  c #7B132B",
"k  c #6C0D30",
"l  c #721331",
"z  c #7B1330",
"x  c #682832",
"c  c #5F411D",
"v  c #644117",
"b  c #6E4515",
"n  c #63421A",
"m  c #6A461B",
"M  c #6E491C",
"N  c #704614",
"B  c #794C16",
"V  c #734A1A",
"C  c #7A4E1A",
"Z  c #7D501C",
"A  c #644521",
"S  c #6D4C26",
"D  c #724D22",
"F  c #784F20",
"G  c #7D5323",
"H  c #775328",
"J  c #725531",
"K  c #7B5A32",
"L  c #18314E",
"P  c #233A5A",
"I  c #7C6965",
"U  c #7F6C68",
"Y  c #94171F",
"T  c #981B26",
"R  c #941E2D",
"E  c #9A1C2D",
"W  c #8F1F37",
"Q  c #9B1E34",
"!  c #991D37",
"~  c #A21D2E",
"^  c #A21936",
"/  c #88202E",
"(  c #972129",
")  c #9B232D",
"_  c #882032",
"`  c #942233",
"'  c #9B2234",
"]  c #94223A",
"[  c #9A223C",
"{  c #A6252E",
"}  c #B3312C",
"|  c #BA2C36",
" . c #AD3238",
".. c #B5323A",
"X. c #B83439",
"o. c #BC343C",
"O. c #C0272C",
"+. c #C52D37",
"@. c #C12D3E",
"#. c #C4313B",
"$. c #E73B3D",
"%. c #E83E3B",
"&. c #84541C",
"*. c #88571D",
"=. c #8B581D",
"-. c #905C1E",
";. c #835623",
":. c #835726",
">. c #855924",
",. c #8A5921",
"<. c #825A2A",
"1. c #8C5E2A",
"2. c #905F24",
"3. c #845E32",
"4. c #8E612B",
"5. c #95652D",
"6. c #9A682C",
"7. c #856136",
"8. c #8B6334",
"9. c #8C663A",
"0. c #956936",
"q. c #9A6E3A",
"w. c #9E713D",
"e. c #A3733C",
"r. c #B07639",
"t. c #DB493C",
"y. c #E3443F",
"u. c #E6473F",
"i. c #C97B2C",
"p. c #C77D3A",
"a. c #962040",
"s. c #BB2741",
"d. c #BD2B41",
"f. c #B73446",
"g. c #CC3544",
"h. c #C83353",
"j. c #E93F46",
"k. c #956D40",
"l. c #9D7341",
"z. c #A67945",
"x. c #DD4443",
"c. c #E44543",
"v. c #EA4343",
"b. c #EA4648",
"n. c #E34A4B",
"m. c #E74848",
"M. c #ED4954",
"N. c #C77B45",
"B. c #FD685A",
"V. c #FF705D",
"C. c #FF6C6B",
"Z. c #BE8339",
"A. c #C2812D",
"S. c #C78036",
"D. c #C4813C",
"F. c #BD8347",
"G. c #B8947B",
"H. c #C48143",
"J. c #C78248",
"K. c #C88652",
"L. c #A9938E",
"P. c #AD9B8E",
"I. c #B1948E",
"U. c #B29A8E",
"Y. c #B78D91",
"T. c #AC9692",
"R. c #AD9B95",
"E. c #A69B98",
"W. c #AE9C99",
"Q. c #B29A95",
"!. c #B29D9A",
"~. c #BA9C9A",
"^. c #ADA196",
"/. c #B2A199",
"(. c #AF9AA1",
"). c #D4B7AF",
"_. c #C5B7B4",
"`. c #C5BAB5",
"'. c #C9BBB6",
"]. c #C6BDB8",
"[. c #C9BDBA",
"{. c #C5C2BB",
"}. c #CBC1BC",
"|. c #ACBFCE",
" X c #90D8CA",
".X c #8EDAD8",
"XX c #96DCDA",
"oX c #ADC7CB",
"OX c #B7CACC",
"+X c #AECAD1",
"@X c #B7CBD0",
"#X c #BAD2D2",
"$X c #8FDCE4",
"%X c #92DBE6",
"&X c #ABCFF1",
"*X c #D4DCC5",
"=X c #DCD3CE",
"-X c #CDDFDF",
";X c #DDD7D7",
":X c #DFDAD3",
">X c #E0D7D2",
",X c #E1DBD5",
"<X c #C7E0DD",
"1X c #CCE3DE",
"2X c #D4E3DC",
"3X c #CBE4E2",
"4X c #C8ECEC",
"5X c #D5E5E9",
"6X c #C7FFFC",
"7X c #CEFEFF",
"8X c #D5FEFE",
"9X c #DBFBFF",
"0X c #E8F4E8",
"qX c #E4F3F2",
"wX c #FBF9F6",
"eX c #F9F7FB",
"rX c gray98",
/* pixels */
"m q *.,.,.-.&.b B B &.&.&.&.N N 5.G c G H G ,.>.c Z ,.=.*.C B N N &.&.B B V &.m F >.G e H n 1.8.8.A A w.8.8.e.z.e.z.9.K 9.k.z.l.",
"n q ;.C *.*.b w B B t &.&.&.*.t S <.H 4.4.,.G m 0 ,.,.,.-.C N B B B B &.&.N V Z n r n D 1.D D A A n H e.J S 0.w.z.e.k.J J l.z.F.",
"M w *.w &.&.B w V B 9 &.*.*.&.t G <.D 1.4.>.Z c 0 &.Z =.=.N w C C b &.&.*.*.y t m v V 5.5.H G G 5.8.<.q.<.H 0.0.w.q.9.S J l.F.l.",
"C w m 0 B &.&.w t N 0 *.&.B m t D A A G >.G G M r =.w &.*.B w N B 9 &.&.*.*.n V M G >.5.1.:.1.5.q.6.q.5.q.7.0.8.3.H 3.7.K k.k.k.",
"n 0 &.C *.=.b w B &.t &.&.*.*.t A r 0 r m F G Z r m 9 C *.Z r t N 0 *.&.C v v w 0 0 r n D H 4.6.6.5.1.<.0.3.q.q.7.K l.9.k.k.K k.",
"M e *.t &.*.B w N B 0 &.*.*.&.t 6.4.G n e n ,.;.m v q b *.Z w w v 0 q w 9 q V ,.G C m e 9 e D H H 5.0.6.0.8.w.e.7.7.l.9.k.J S J ",
"F e m 0 C *.C w t N 0 *.&.C m t 5.6.G m S M ;.Z V r V m w v q n ,.;.&.Z m C ;.,.,.2.1.m n S H F <.<.8.0.8.8.q.w.7.K q.7.9.K J K ",
"m e *.,.,.-.C N B B m q ;.,.-.-.Z b B B B Z &.Z V V ,.,.,.,.*.,.,.,.,.,.,.,.,.,.;.,.,.,.,.,.,.>.,.,.,.,.,.,.=.,.=.*.,.,.,.>.>.<.",
"t q &.B =.=.b w B B y q ;.C =.=.b w B B b &.&.=.*.v ,.,.,.,.4 5 4 4 4 4 4 4 4 4 4 4 4 4 4 4 4 4 4 >.4 5 4 4 4 4 4 4 5 4 4 4 4 ,.",
"M w ;.t &.*.B 0 V B M w ;.t &.&.B w V B 9 &.*.&.&.v 5 5                   o                                                     ",
"C q m 0 B *.&.w t V C q m 9 C &.Z w v V 9 *.&.C m v   . ,X;X,X,X,X,X:X,X,X,X,X,X;X,X:X,X,X,X,X,X,X,X,X,X,X,X,X,X:X,X,X2X;X,X,X,X",
"q ,.=.-.-.B b B B B C &.&.V V =.,.,.=.,.=.,.,.,.=.>.    ;X,X,X,X,X,X,X,X,X,X,X>X,X,X,X,X,X,X,X,X,X,X,X,X;X,X,X,X,X,X,X,X,X,X,X,X",
"C *.=.b w B &.b &.&.&.*.*.*.t ;.,.,.,.,.4 4 4 2 2 4     ].].`.'.[.].'.'.].'.[.'.[.[.'.`.[._.'.'.[.[.[.'.`.].[._.`.'.'.'.[.[._.`.",
"t &.;.B w V N 9 &.&.&.*.&.*.t ,.,.=.>.. X           .   ,X>X{.=X[.:X[.=X=X[.[.=X[.}.=X=X[.>X{.=X[.[.[.>X}.=X[.>X:X[.[.=X:X[.:X:X",
"q B &.&.w t N 0 &.&.&.&.B m t ,.,.>.2 . X X         . . >X>X{.=X[.:X[.=X=X[.[.:X[.[.=X=X[.:X[.=X[.[.[.>X[.=X'.:X:X'.{.=X=X[.:X=X",
",.=.=.C N C B m 0 *.,.,.,.,.  .       X n.v.v.c.c.b. . .*X*X'.>X].:X`.>X>X'.'.:X].].:X:X'.:X`.>X'.`.`.,X'.>X`.:X:X`.'.>X>X`.:X>X",
"B =.=.t t C &.t 0 ;.,.,.,.5     X     X x.v.v.c.x.b. . .*X*X`.>X`.:X_.>X:X_.`.>X`.`.>X:X`.:X[.>X_.`.`.>X`.>X`.:X:X`.`.>X>X`.:X:X",
"t &.&.B t N V m w *.,.;.2 . n.n.n.M.j.| m.n.n.u.%.j.s.s.;X;X[.>X[.>X}.>X:X[.[.,X}.}.>X>X[.>X[.>X'.[.[.,X}.>X'.,X:X}.[.>X>X'.,X:X",
"9 C &.&.w t N C w m ,.,.2 . n.n.n.M.n.| m.n.n.u.%.x.d.d.;X;X].>X[.>X[.,X>X[.[.,X[.}.>X>X[.>X[.>X[.[.'.,X[.>X'.,X:X'.}.>X>X'.,X>X",
"-.-.B b B V B &.&.C ,.5   #.v.v.v.j.n.g.v.c.c.y.$.j.g.d.:X:X].:X[.,X[.>X>X'.[.,X}.`.>X>X[.,X[.>X[.[.[.,X[.>X[.,X,X}.[.:X>X}.,X,X",
"=.*.b w C &.t &.&.*.2 O s.d.B.B.B.v.n.| v.c.x.c.u.v.g.g.eXeX[.,X}.,X}.>X,X[.[.>X[.}.>X>X[.,X[.,X[.[.{.>X[.,X}.:X:X}.}.,X,X}.>X,X",
",.,.,.,.,.3 3 3 3 3   } .X{ b.b.b.c.m.| c.y.y.b.v.v.o...wXwX[.,X'.,X}.,X,X'.[.,X}.`.,X,X[.,X{.,X[.'.[.,X[.,X}.,X:X).}.,X,X'.,X,X",
",.,.,.      .       h.%X.X} C.B.B.c.n.| ~ T T ~ ) ) 7 s {.{._.[.'.}.`.}.{.'.'.}._._.}.}.`.}.`.{.'._.'.}._.}._.}.}.`.`.}.}.`.}.}.",
",.,.X j.$.$.$.c.} } %X9XXXf.C.C.C.x.n.' ` ( R / _ ' h j eXeXrXrXrXwXwXwXrXrXrXwX,X>XwXwX:X:X,X:X>X:X:X:X,X:X:X:X:X:X:X:X:X:X,X,X",
"5   X j.$.$.g.x.} } %X8X.Xf.C.C.C.t.n.' ` R R _ _ ! h l eXeXrXrXrXrXrXrXrXrXrXrX;X;XrXwX:X;X:X:X:X:X:X:X:X:X:X:X:X:X:X:X:X:X:X:X",
"5   X j.$.$.t.x.} } %X9XXXf.C.C.C.u.n.' ` R R _ _ ' l h eXeXrXrXrXrXrXrXrXrXrXrX:X;XwXwX,X;X:X:X:X:X:X:X:X:X:X:X:X:X:X,X:X:X:X:X",
"  h.h.c.j.$...|  X X9X7X$X#.C.B.V.B.B.V.C.u.v.| o.d.[ [ U.Q.E.E.E.R.R.R.R.E.E.R.E.T././.^.R.R.W.R.R.W.R.R.R.W.R.P.^.R.R.R.R.^.R.",
"   ...j.n.n.| } 9X9X7X6X.X+.^ Q ! R R R ' [ [ T T ` h h I I I I I I I I I I I I I I I I U U I I I U I I I I I I I I I I I I I I ",
".  . .j.j.j.o.@.8X8X7X7X| ( ^ ^ ! .X$X%X%X$X$X X XE z z P.E.R.!.R.W.R.R.R.Q.R.R./.W.W.W.E.^.^.^.R.T.R.R.R.R.R.R.R.R.R.R.R.R.R.R.",
"  g.o.j.c.v.+.+.7X6X8X| a./ $X$X%X7X7X7X7X7X7X7X7X! s s Q.T.R.R.R.R.R.W.E.R.R.R.W.W.E.E.P.P.Q.U.R.R.R.Q./.!.E.R.R./.!.!./.R.T.Q.",
"  g.o.b.c.c.O.O.8X8Xh.Q [ XX7X7X7X6X7X7X8X8X7X8X8XR a a p.p.D.D.D.D.Z.D.D.H.D.D.H.H.D.D.S.D.D.D.D.H.H.D.T.R.!.L.L.T.T.Q.T./.R.P.",
"  d.d.m.v.c.O.O.8X8Xh.E ' XX7X7X7X7X7X7X7X7X7X8X8X` a a p.p.D.p.D.H.H.D.Z.Z.D.H.H.H.r.S.S.D.S.D.F.D.D.S.L.!.~.L.L.T.T.T.T./.E.P.",
"  d.@.b.m.m.O.O.8X8Xh.E Q XX7X6X6X7X7X8X7X7X7X8X8X` a g p.p.D.D.Z.H.F.D.Z.D.D.Z.H.H.p.Z.S.p.S.D.D.H.H.S.T.!.~.L.L.T.T.T.T.!.R.R.",
"5X#.#.b.u.m.o.o...f.[ T t.c.j.y.j.6X7X7X8X7X7X9X8X) k l p.N.D.D.D.D.p.p.p.H.D.N.D.D.D.S.F.H.H.H.S.S.S.D.R.!.R.L.T.R.R.^.^.!.L.L.",
"3Xg.#.b.m.m.f. .[ ! Y d z f 8 8 8 6X7X7X7X7X7X6X7XQ l l E.E.Q.R.R.R.R.R.R.R.R.R.P.U././.I.F.H.D.K.K.K.U.x h Y.h f x x /./.T.^.R.",
"3X+.+.u.u.u.m.m.c.m.X.n.k a s a 7 y.x.y.c.v.c.j.c.t.d.d.!.W.R.R.R.R.W.(.E.P.P.P.^./.(.~.N.F.D.S.W.W./.8 z R.a g g R.E.R.R.R.R.R.",
"<X| ..~ Q E ] ] ` ' f R ' ( ] W W E E W 6 6 u p p ! s s ^.R.R.R.R.R.R.R.R.U.U.T.U.Q.S.D.N.N.N.Q.f f x g ~.8 s Q.Q.T.R.R.T.R.Q.P.",
"<X..} ~ ~ Q ' W ` ` f ! ' Q W W W E R / 6 u u p p ! / s ^.R.R.R.R.R.W.R.R.U.U.R.U.U.S.D.K.N.N.Q.h h g g U.f s Q.Q.R.U.R.R.R.R.T.",
"3Xo.X.~ Q Q W ] ' R p Q ' R _ ] W R ' W 6 u u p p ! d s R.R.R.R.R.R.W.R.R.P.P.T.U.U.D.D.N.N.N.Q.g g g h /.g s Q.Q.Q.R.T.T.R.R.R.",
"<X, , > g g ] ` ' ' h E ' Q ' ~ ~ ` R Q W ! ! / / Q k d W.W.R.R.R.R.Q.P.R.(.(./.H.J.D.D.H.N.U.W.^.^.^.P.I.~.^.L.L.R.!.W.R.R.R.Q.",
"4XL L L k l ( ` ) ) g ( _ j n.b.m.c.b.b.x.n.n.%.y.t.f.f.P.L.Q.R.R.R.U.R.W.I.T.J.A.A.i.i.p.Z.J.F.J.J.J.S.F.H.p.r.r.H.D.H.H.H.H.N.",
"<X- ; ; a a ` W R R h ' a | ] ] ] ' T ! ! ( T R E ` ` W R.E.R.W.R.W.R.(.W.G.G.i.D.D.D.D.D.S.Z.D.S.D.S.D.D.D.D.D.D.D.D.D.D.D.S.D.",
"3XL L L a d ] ] ! ` l [ f ( Q ' ' > - - - - - 6 6 6 p 6 R.R.R.T.W.Q.Q.R.R.R.W.G.R.R.T.R.R.R.R.R.Q.U.R.R.P.R.R.R.Q.^.R.Q.R.R.Q.P.",
"1Xh d k d d l l g g i j i ' @ @ @ % @X5XoX% # $ $ i 6 i P.E.R.E.R.R.R.P.U.E.E.W.R./.W.R.!.^.R.W.R.^.W./.R.R.W.W.Q.Q.R.R.R.W.R./.",
"1Xf f k d d l l j g i h u ` @ # % & @X5XoX% % $ $ u i i P.R.R.T.R.W.R.T.U.R.Q./.R.W.W.W.W.R.R.R.W.Q.W.W.W.W.W.R.R.W.W.W.R.Q.W.W.",
"0XqXqXwXd.f.o.X.} | ) #.^ [ = > = +XL 3XL |.|.# # u i i ).).[.[.'.'.'.'.[.[.).'.[.{.].[.[.[.[.[.{.[.].[.].].[.[.[.[.].[.{.[.].[.",
"0XqXqXqXo.f.o.| | | ) #.^ [ = = = +XL 1XL oX|.# # u i i ).).[.[.'.[.'.[.'.'.'.'.[.[.[.[.].[.].[.].[.[.[.'.].[.[.].[.[.].[.{.[.[.",
"oXoX+X@X' ( Q ' ` ` l Q z ~ % % % 1X-X- 3X3X2X& # i p p R.R.R.Q.Q.R.R.R.Q.R.Q./.R.R.R.R.R.!.P.E.Q.^.Q.P.R.R./.R.R.R.!.R.Q.R.R.R.",
"oX+X+X#X' ' ' E ` ` d E j ) % % % 1X2X- <X2X2X$ $ i i p Q.Q.R.R.R.Q.R.R.R.Q.R.R.R./.R.Q.R.R.P.R./.^.Q.P.R.R.W.R.R.R.R.R.Q.R.R.!.",
"@X@XOXOX' { ' ' _ ` s ' z ` & & & OXP 1XL OXoX# #   . . R.Q.R.R.R.R.R.Q.R.R.R.Q.R.R.R.T.R.R.L.P././././.E.(.W.R.R.R.Q.R.R.R.R.R.",
"  . . X X X .           X . & & & - oX1X@X% & # #   1 1 X     .     .                 .     o & > > > #X5X|.= & &     .         ",
"  . . o X X             X . & & $ = oX1X@X& % # #   1 *.        .       .       .           o % > > > #X3X|.- & &     ,.,.,.,.,.",
">.,.,.,.1 < < < < < 1 < 1 +       - & % - ; ;     : : ,.,.< < < < < < < < < < : < < ,.,.,.,.;.o $ * $ & $ & @     < ,.M w ;.,.-.",
"e >.,.,.-.C b B B B Z Z Z C V >.<             < =.*.M q *.,.,.=.C N B B B C &.&.V V ,.,.,.,.,.,.=.            + < ,.,.y q &.C =.",
"q *.C =.=.N t B B N &.&.=.*.n ,.,.&X&X&X&X,.,.,.,.,.r q ;.Z =.=.N w C C m &.*.*.*.t ,.M q *.,.=.=.Z N Z V C &.&.&.V V M w &.t &.",
"w ;.w &.&.B w N V 9 &.*.*.*.v >.,.,.,.,.,.,.,.,.,.,.M w *.w &.&.B w V V 9 &.*.*.*.t ,.y q ,.C *.=.N w B C b &.&.=.;.t F q m 0 B ",
"q b 9 C *.Z w w N 0 &.Z Z m v *.,.,.,.,.;.,.,.,.,.,.F q m 9 B *.&.w t V 0 *.&.C v n ,.M e *.t &.&.B w N N 9 &.&.*.*.y ,.,.,.,.,.",
"b w C B b *.*.=.*.v H <.D 4.4.>.G M 1.5.>.v q w q w t t w q q w m *.2.C t C G F ;.;.r C w m 0 C &.&.w t N 9 &.&.V m v H J q.8.K ",
"C w N C 9 &.*.*.&.v G G D 4.4.>.C v 5.5.1.,.>.D D C m C ;.b t t t C *.,.m m t F >.2.M m 1.>.D A n =.=.b t B &.b &.*.*.*.t S :.H ",
"Z w t N 9 &.Z C v v S m n G >.Z F m 1.1.5.>.V r C ;.;.C &.&.=.=.N t B C b &.*.*.*.t S :.H 1.4.,.;.m &.B w V V 9 &.*.*.&.t G :.D ",
"b w B C b &.*.*.*.v A c 0 c m D ;.V D D C :.m q ,.;.=.*.*.&.&.&.B w V N 9 &.*.*.*.t G <.D ,.5.>.C y *.C w v N 0 &.&.C v y D A m ",
"C w V V 9 &.*.*.&.c 6.4.G n e m ;.;.y A D 5.F D F m C &.B N B &.&.w t N 0 *.&.B m y D A n G :.G G M =.m w B C b &.*.=.*.t m e 0 ",
"C w t B 9 *.&.V v v 6.6.G v S M ,.;.H y r t t t t q q w w w =.=.N w B &.t &.&.*.*.t A r 0 r m F G C *.B w N N 9 &.*.*.*.y 6.8.:.",
"K J K K 7.9.K S q.q.0.0.A 7.K <.<.:.A 1.1.1.;.;.t t t q 0 0 &.&.B w N B 9 &.*.*.;.y 6.4.G A e v ;.;.&.&.w t V 0 *.Z C m t 5.6.H "
};
