/* XPM */
static char *result[] = {
/* columns rows colors chars-per-pixel */
"64 64 215 2 ",
"   c #020101",
".  c #0A0001",
"X  c #000B00",
"o  c #00060A",
"O  c #000012",
"+  c #0D0E2A",
"@  c #041527",
"#  c #0C1925",
"$  c #0B142D",
"%  c #0B1B2D",
"&  c #101C2C",
"*  c #081A34",
"=  c #131C36",
"-  c #251E23",
";  c #0D2032",
":  c #102037",
">  c #262826",
",  c #34312E",
"<  c #333035",
"1  c #353434",
"2  c #560A1C",
"3  c #7A0F1F",
"4  c #76111F",
"5  c #4F3311",
"6  c #513514",
"7  c #563816",
"8  c #5C3B14",
"9  c #563A19",
"0  c #5C3D19",
"q  c #613F16",
"w  c #603F19",
"e  c #540921",
"r  c #5A0A27",
"t  c #670B29",
"y  c #740A26",
"u  c #7C0D25",
"i  c #6D152A",
"p  c #741225",
"a  c #73142B",
"s  c #6C0D30",
"d  c #721331",
"f  c #7B1330",
"g  c #682832",
"h  c #5F401C",
"j  c #63421B",
"k  c #6A451A",
"l  c #6C4518",
"z  c #754916",
"x  c #734B1B",
"c  c #7A4E1A",
"v  c #7D511D",
"b  c #5F4527",
"n  c #644521",
"m  c #674925",
"M  c #6D4B22",
"N  c #6B4D2A",
"B  c #724D22",
"V  c #734F27",
"C  c #6D502E",
"Z  c #755024",
"A  c #7B5324",
"S  c #72522D",
"D  c #7B552A",
"F  c #7C582D",
"G  c #715431",
"H  c #785731",
"J  c #7B5A32",
"K  c #18314E",
"L  c #233A5A",
"P  c #7C6965",
"I  c #7F6C68",
"U  c #981B26",
"Y  c #941E2D",
"T  c #9A1C2D",
"R  c #8F1F37",
"E  c #9B1E34",
"W  c #991D37",
"Q  c #A21D2E",
"!  c #A21936",
"~  c #88202E",
"^  c #99222B",
"/  c #882032",
"(  c #942233",
")  c #9B2234",
"_  c #94223A",
"`  c #9A223C",
"'  c #A6252E",
"]  c #B3312C",
"[  c #BA2C36",
"{  c #AD3238",
"}  c #B5323A",
"|  c #B83439",
" . c #BC343C",
".. c #C0272C",
"X. c #C52D37",
"o. c #C12D3E",
"O. c #C4313B",
"+. c #E73B3D",
"@. c #E83E3B",
"#. c #84541C",
"$. c #88571D",
"%. c #8A581E",
"&. c #905C1E",
"*. c #835622",
"=. c #845724",
"-. c #845925",
";. c #8A5A22",
":. c #825A2B",
">. c #8B5F2B",
",. c #905E23",
"<. c #845E32",
"1. c #8E622D",
"2. c #946023",
"3. c #93642C",
"4. c #98682F",
"5. c #856035",
"6. c #8B6334",
"7. c #8A6539",
"8. c #8D663A",
"9. c #936632",
"0. c #946935",
"q. c #996B35",
"w. c #946B3B",
"e. c #9A6E3B",
"r. c #9D713C",
"t. c #A26F35",
"y. c #A3743D",
"u. c #B77A3B",
"i. c #DB493C",
"p. c #E4453F",
"a. c #C97B2C",
"s. c #C77D3A",
"d. c #BB2741",
"f. c #BD2B41",
"g. c #B73446",
"h. c #CA3449",
"j. c #E93F46",
"k. c #956D40",
"l. c #9D7341",
"z. c #A47844",
"x. c #A77A45",
"c. c #DD4443",
"v. c #E44543",
"b. c #EA4343",
"n. c #E84748",
"m. c #E34A4B",
"M. c #ED4954",
"N. c #C77B45",
"B. c #FD685A",
"V. c #FF705D",
"C. c #FF6C6B",
"Z. c #BE8339",
"A. c #C2812D",
"S. c #C78036",
"D. c #C4813C",
"F. c #AF8046",
"G. c #BB8347",
"H. c #B8947B",
"J. c #C48143",
"K. c #C78248",
"L. c #C88652",
"P. c #A9938E",
"I. c #AD9B8E",
"U. c #B1948E",
"Y. c #B29A8E",
"T. c #B78D91",
"R. c #AC9692",
"E. c #AD9B95",
"W. c #A69B98",
"Q. c #AE9C99",
"!. c #B29A95",
"~. c #B29D9A",
"^. c #BA9C9A",
"/. c #ADA196",
"(. c #B2A199",
"). c #AF9AA1",
"_. c #D4B7AF",
"`. c #C5B7B4",
"'. c #C5BAB5",
"]. c #C9BBB6",
"[. c #C6BDB8",
"{. c #C9BDBA",
"}. c #C5C2BB",
"|. c #CBC1BC",
" X c #ACBFCE",
".X c #8EDAD8",
"XX c #93DAD2",
"oX c #ADC7CB",
"OX c #B7CACC",
"+X c #AECAD1",
"@X c #B7CBD0",
"#X c #BAD2D2",
"$X c #8FDCE4",
"%X c #92DBE6",
"&X c #D4DCC5",
"*X c #DCD3CE",
"=X c #CDDFDF",
"-X c #DDD7D7",
";X c #DFDAD3",
":X c #E0D7D2",
">X c #E1DBD5",
",X c #CBE2DE",
"<X c #D4E3DC",
"1X c #CDDFE1",
"2X c #CBE5E4",
"3X c #D5E5E9",
"4X c #C7FFFC",
"5X c #CEFEFF",
"6X c #D5FEFE",
"7X c #DBFBFF",
"8X c #E8F4E8",
"9X c #E4F3F2",
"0X c #FBF9F6",
"qX c #F9F7FB",
"wX c gray98",
/* pixels */
"#.#.x x v j 0 j B >.M B n n n B y.B N 8.e.x.z.e.N A %.%.$.c z z l #.#.c z z *.k c *.A 0 A h >.6.>.n n e.6.6.y.x.x.y.w.H 7.k.z.z.",
"#.%.%.8 w k j x 3.3.A *.-.6.9.:.e.:.F 0.w.r.e.8.N *.%.;.%.c z c z z c #.#.z x v j 8 j x >.M B n n n Z y.N N 0.r.z.y.k.N G l.x.x.",
"$.$.#.q x k v -.2.>.:.>.3.t.q.0.9.e.5.0.0.5.S <.7.*.c %.%.z 8 c #.l #.$.%.#.8 j j j x 2.3.A A -.3.9.:.e.:.F 6.e.r.e.0.N G z.F.x.",
"x v j 0 j x >.B B n n x v j 0 w x >.M B j n n V y.V N 0.r.z.y.l.M v $.$.$.c z z z #.#.c >.-.>.3.t.q.q.9.e.5.0.6.<.S <.7.J k.k.k.",
"q q k j x 4.3.A A D 3.q w k j B 3.3.A A -.1.3.:.q.:.F 0.w.r.e.8.N %.%.&.&.c l c z c #.#.B Z 1.q.9.9.>.:.0.<.e.e.<.H z.7.k.k.J k.",
"q x l A ;.3.1.:.1.3.t.q x l A ;.3.1.-.>.1.t.q.q.9.e.:.0.8.5.S 5.5.#.c %.%.z 8 z c l #.#.6 9 x Z D 3.9.q.0.6.y.y.<.5.l.8.k.G C G ",
"q 8 6 7 0 j B Z 1.4.4.q q 6 7 0 j B Z 1.0.4.9.5.:.0.<.e.e.<.H l.7.*.8 #.#.z 8 z z 5 #.#.k M A Z #.c x x v j 0 j B >.B B n k b N ",
"x %.A x j 7 6 9 B A D l ;.A x k 7 6 9 B A A 3.0.q.q.6.r.y.<.6.l.0.l 5 c $.#.8 q z 6 #.#.>.M M n n j %.q 0 k j x 2.3.A D A 6.9.:.",
"#.,.;.>.>.k j M A Z -.*.;.;.>.,.k j M A B -.:.1.0.9.6.e.e.<.J e.<.q 7 l %.v 7 q q 6 8 8 3.A A -.1.1.#.q x k A ;.3.>.-.>.3.t.q.q.",
"      o               o           o           o       o         o   . . 1 1 3.-.>.3.t.q.1.-.1.3.t.q.l j q 6 7 0 j B V 3.9.9.0.>.",
">X>X>X>X;X>X>X;X;X>X>X-X>X>X>X>X>X>X>X>X-X>X>X>X>X;X>X>X>X>X>X>X>X>X-X<X    x Z 3.4.3.9.x Z 1.4.9.0.8 l ;.A x k 7 6 9 B Z D 3.0.",
">X>X>X>X>X>X>X>X>X>X>X>X>X>X>X>X>X>X>X>X>X>X>X>X>X>X>X>X>X>X>X>X>X>X>X>X    ;.-.%.;.;.;.-.$.%.1.B B n n j v x x #.j 0 w x >.x B ",
"'.'.{.].'.].].`.`.{.].].[.{.{.{.].].`.{.].].].].'.{.{.].].'.'.{.{.{.[.[.    1 , , , 1 1 1.#.;.3.A A -.6.1.%.#.q j k j B 3.3.A A ",
";X-X{.*X*X|.{.;X:X{.*X{.;X{.{.{.*X{.;X{.*X*X{.{.;X{.{.*X*X|.*X{.*X{.:X:X.   .           X #.;.1.-.>.3.t.q.%.#.j x l A ;.3.>.:.>.",
";X:X{.*X*X|.|.:X:X{.*X{.:X{.{.{.*X{.;X{.*X*X|.|.:X{.{.*X*X|.:X{.*X|.:X>X.       o       . , %.x Z 1.4.9.3.c l #.#.z x v j 0 j x ",
";X:X'.:X;X'.'.;X:X'.:X'.:X].].].:X'.;X'.;X;X'.'.:X`.].:X;X'.;X'.:X'.&X&X{ { n.b.v.p.p.m.X   o       ;.;.8 6 6 #.%.#.q q k j x 3.",
";X;X].:X:X'.'.;X;X].:X].;X'.].].:X].>X'.:X;X'.'.:X].'.:X:X'.:X'.;X'.&X&X{ { n.v.n.p.p.m.X   o       1 ;.c k c #.%.#.q x l A #.#.",
":X:X{.:X:X|.|.;X>X].:X|.;X].].{.:X].:X{.:X:X|.|.:X{.].:X:X|.>X{.;X[.-X-Xd.d.j.@.p.m.m.v.[ m.M.m.m.m.. 1 ;.;.;.#.c k w q 6 7 #.%.",
">X>X{.:X;X|.].>X;X].:X|.;X].|.{.:X].>X{.:X:X'.|.>X{.{.:X:X].>X].;X].-X-Xh.[ b.@.p.n.m.n.[ n.M.m.m.m.. , ;.;.;.8 5 6 x ;.v x $.#.",
">X>X{.:X*X].|.>X>X].:X].>X].].{.:X|.>X{.:X:X'.|.>X{.{.:X:X|.>X{.;X[.*X*Xh.d.p.p.p.n.v.b.o.c.j.b.b.b.X.X < ;.;.v k c #.;.>.;.#.c ",
">X;X|.;X>X|.].>X;X|.;X|.;X|.|.].:X|.;X{.:X>X].|.>X|.{.>X>X].;X|.:X{.qXqXh.h.p.p.p.v.c.n.[ m.b.B.B.B.d.d.O , #.*.;.;.;.;.%.%.8 5 ",
">X>X].:X>X].|.>X>X].;X|.>X].].}.:X|.>X{.>X>X].|.>X'.'.>X>X|.>X'.>X{.wX0Xg.| b.b.b.p.b.v.X.c.b.m.n.n.{ XX]   < , < < , -.;.;.#.k ",
"|.|.].|.|.'.'.|.|.'.|.'.|.'.'.'.|.'.|.].|.|.'.`.|.].`.|.|.'.|.'.{.`.}.}.u 3 Q Q U U U Q [ m.v.B.B.C.] .X%Xh.o             ;.*.;.",
";X;X;X;X:X;X;X;X;X;X;X;X;X;X;X;X;X>X-X;X0X0X;X:XwXwXwXwXwX0XwXwXwXwXqXqXa a ) / ~ Y Y R ) m.c.C.C.C.f..X7X%X] ] c.c.+.+.j.X ;.%.",
";X;X;X;X;X;X;X;X;X;X;X;X;X;X;X;X;X;X;X;X0X0X>X-XwXwXwXwXwXwXwXwXwXwXqXwXa d ) / / ( Y ( ) m.i.C.C.C.g.XX7X$X] ] c.+.+.+.j.  X < ",
";X;X;X;X;X;X;X;X;X;X;X;X;X;X;X;X;X;X-X-X0X0X;X-XwXwXwXwXwXwXwXwXwXwXqXqXa f ` / / ^ Y ~ ) m.p.C.C.C.g..X7X$X] ] c.c.+.+.j.o . < ",
"W.W././.Q.E.E.E.E.E.E.E.Q.Q.E.E.W.)./.E.E./.P.E.W.Q.Q.Q.W.E.Q.Q.Q.W.!.U.W E g.X. .v.v.B.V.B.B.B.C.V.o..X5X7XXXXX{ [ j.j.v.h.h.  ",
"P I I k.P P P P I P P P P P P P I I I k.P P I P P P P P P P P P P P P P d a ( U U ` ` ! Y R ~ T E ! o..X4X5X7X7X[ ] c.m.b.{ { o ",
"W.Q.E.E.E.E.E.E.E.E.E.E.E.E.E.E.W.W.E.Q.Q.Q.Q.Q.E.E.E.E.E.E.E.E.E.E.W.P./ / T XXXX$X$X$X%X.X%XW ! ! U } 5X5X6X6Xo.X.j.b.n.} g.  ",
"!.Q.E.~.~.(.(.E.E.W.~.(.!.!.E./.!.W.W.I.W.W.Q.E.E.E.E.Q.E.E.E.E.E.E.!.U.y y W 4X5X5X5X5X6X5X5X$X%X%X/ W f.5X5X5XX.X.p.p.j.f. .  ",
"R.W.~.R.R.R.R.P.P.^.~.P.D.D.J.J.J.S.s.S.Z.Z.J.G.D.J.D.D.D.Z.D.D.D.D.s.s.y y Y 7X6X5X5X5X5X5X4X5X5X6X.X` E h.6X6X....v.n.j.h.f.o ",
"W.R.(.R.R.R.R.R.P.~./.R.S.D.Z.J.D.s.D.S.D.s.G.N.D.Z.Z.J.D.J.D.G.Z.D.s.a.y y T 5X7X5X5X5X6X5X5X5X5X6XXX) E h.6X6X....v.v.v. .o.  ",
"W.E.(.E.R.R.R.P.P.^./.R.S.J.D.D.D.D.s.S.D.D.J.J.J.Z.N.Z.J.Z.D.J.D.s.s.s.y 4 Y 6X6X5X6X5X5X5X5X5X5X4X.XE T h.6X6X] ..n.p.n.O.h.  ",
"P.R.!./.E.E.E.P.R.~.(.!.D.S.S.S.J.J.J.J.D.D.D.S.s.D.D.s.D.s.D.s.D.J.N.N.t s T 6X6X5X5X5X5X5X4Xp.+.j.n.i.U ` g.g. .O.v.v.n.O.O.3X",
"E./.P.(.(.g g i p T.a g Y.L.L.L.D.K.K.U./.E.Y.Y.E.E.E.E.E.E.E.E.E.E.W.W.d d ) 5X5X5X5X5X6X5X4X4 4 4 s a y U ` W  .g.n.n.b.o.o.2X",
"E.E.E.E.E.E.!.a i y E.f 4 (./.I.A.s.G.N.).~.Y.(.I.I.E.W.).Q.!.E.E.E.Q.Q.h.f.i.p.+.b.b.v.c.v.b.3 3 u p s v. .v.v.c.m.p.p.p.X.X.3X",
"E.I.!.E.R.!.E.!.R.u y R.i a a g ^.N.N.N.D.D.(.Y.E.I.Y.E.R.Q.E.Q.E.E./.E.u u W t t e e 2 ~ ) T R R R T ) ( i ( ( _ _ ! ) Q } } ,X",
"E.E.E.R.E.R.R.!.!.~ i T.p a a p !.N.N.L.S.D.Y.Y.E.I.Y.R.E.Q.E.E.E.E././.u u W t r e e 2 R E U R R R ( ) ( y ( ( _ ( T Q ' ] { ,X",
"E.E.I.E.E.E.!.!.!.u i Y.a p p p !.N.N.L.D.D.Y.Y.E.E.Y.E.E.Q.E.E.!.E.E./.u u W s t e e 2 ~ ^ T R R R Y ) R y ( ( ( _ T T T } } ,X",
"E.Q.E.!.Q.!.E.P.P./.~.U.Y./././.~.Y.N.D.Z.Z.J.J.(.).Q.I.E.!.E.E.E.E.Q.E.s i ` / ~ W W W W Y ( ) E ! E Y E p ) ) _ ( a a : = = =X",
"N.s.J.J.K.J.J.u.u.u.J.G.S.K.K.K.N.J.Z.D.a.a.A.A.K.U.U.W.Q.Y.E.!.E.E.R.R.g.g.c.i.@.m.m.i.n.n.v.n.n.n.u ~ ^ p ^ ^ ( ( s a K K K 2X",
"D.D.D.D.S.S.D.S.D.S.D.D.S.S.D.S.D.D.D.D.D.D.D.D.a.H.H.Q.Q.E.E.E.E.E.E.E.( ( ) ^ U Y Y E W U E _ _ ( [ y ( a ( ^ ( ( u u * = ; ,X",
"E.E.E.!./.E.E.E.E.E.E.E.!.E.E.!.E.E.E.E.E.E.E.E.H.W.E.E.Q.!.E.E.E.E.E.E.2 r 2 2 2 * $ = * = % E ) ` Y i ` a ) ) _ _ y y K K K 2X",
"E.Q.E.E.E.Q.Q.E.E.~./.E.~.E.E./.E.Q.E.E.Q.(.E.E.Q.Q.E.I.E.!.E.E.E.Q.P.W.r e e # # $ $ oX3X@X* + + + W r a r p p d d s y s s t ,X",
"E.Q.Q.Q.E.E.Q.Q.Q.Q.Q.Q.E.Q.Q.E.Q.E.Q.Q.E.Q.Q.E.~.E.E.Y.I.E.E.E.E.E.W.W.2 r r # # + $ +X3X+X* @ + $ ( 2 a r a p d d s a s a a =X",
"|.{.[.{.{.{.{.{.{.'.|.'.{.{.{.}.[.{.{.[.}.'.{.{.].|.].].{.].].].].'._._.r t e @ @  X+XK 2XK oX* ; * ` ! O.) [ [  . .O.O.qX3X9X8X",
"[.[.{.{.{.|.[.{.{.{.[.'.{.[.|.'.{.{.|.{.{.{.{.[.]._.].{.{.].].].].]._._.r r 2 @ @ oX XK 2XK +X* ; * ` ! o.^ [ [ }  .O.g.8X7X9X8X",
"E.~.E.E.E.E.E.E.E.(.E.E.I.~.E.E.Q.I.E.E.E.E.~.E.E.!.~.E.E.!.E.!.E.~.!.!.t t r @ % <X,X2X$ <X2X$ $ $ ) f T p ^ R E E ^ ) OX+X+XoX",
"E.~.E.E.~.E.E.!.E.(.E.W.I.~.!./.E.I.E.E.E.E.!.E.~.E.E.~.E.E.~.E.E.E.!.!.r t e # % <X<X2X* <X,X$ $ @ ^ a ^ a ( ( T E ( ( @X@X+XoX",
"E.E.E.E.E.E.E.I.E.Q.).).Q.(.(.(.I.P.E.E.E.E.E.E.E.E.E.E.E.!.E.E.E.E.E.E.. .   @ @ OXOXK ,XL OX% * * ) f ) u R R ) ) ' ' OX@X@X#X",
".         .   % % *  X1X#X; ; ; * o         . .           .         X   > >   @ @ @ $ @X,XoX* % % % . X             X X o . .   ",
"3.4.9.4.<.-.  $ % * +X1X#X; & ; % o .           .   .       .   .       ;.>   @ @ $ @ OX,XoX% % # % .           .   X X o .     ",
"B Z D 3.0.q.> o   $ @ # & % % # o 0 w B A >.4.9.9.>.:.0 j B Z 1.4.3.9.1.:.> -     & = * $ % % o o   Z D -.1.0.j M A Z -.:.1.;.;.",
"A V -.:.1.0.;.> >             %.;.k 7 6 9 B Z D 3.0.q.k 9 6 9 M A D 9.9.q.:.*.;.>             h j Z 9.r.0.e.F l.N <.w.r.e.w.0.:.",
"<.0.r.w.0.-.M B j n h S y.N S 0.e.>.k j M A V :.:.1.0.>.k j M A Z -.-.6.0.q.j B B 3.9.3.4.:.:.k 6 6 5.6.5.D 6.J 7.F S e.5.<.3.0.",
"q k j x 3.3.D A -.6.9.-.q.<.D 0.w.z.z.l.N <.0.t.0.0.:.z.z.l.N <.w.r.0.0.:.0.7 6 9 V A D 1.4.e.>.k j 0.6.S N 0.F.x.z.5.8.r.w.:.1.",
"x x A -.3.>.-.>.3.t.q.0.0.q.5.0.8.<.S <.<.*.c %.$.l 8 c x.y.e.M <.8.r.0.0.F k j M A Z D :.1.0.z.z.l.N 5.9.r.0.0.:.l.C 5.0.r.0.0.",
"8 6 7 0 j B Z 1.4.9.3.1.:.9.:.r.e.<.H z.7.;.q #.#.c 8 z z 5 #.$.k ;.2.v j z.z.l.N 5.0.r.0.0.D M 9 M D 9.:.6.5.D 6.J 6.H S e.7.J ",
"-.v x k 7 6 9 B A D 6.0.0.0.6.r.z.<.<.z.8.l 6 c #.#.8 q l 6 $.#.j v #.$.k l 8 A -.2.M j >.-.B m n n :.0.0.6.S N w.F.x.z.5.8.r.w.",
"2.;.;.>.k k M A B -.:.1.0.9.1.r.t.<.J w.<.q 7 l #.#.7 q l 6 8 q 8 #.%.#.c 8 q ;.;.*.*.x j M h k D n 1.0.0.:.H N <.x.x.G.8.N N H ",
"J 8.z.z.z.l.N <.0.r.0.0.F M M Z n w V B B ;.k 9 $.$.$.#.#.#.l z 6 z #.$.#.8 8 v *.*.*.B 0 k h k n n 9.9.0.6.N m S r.k.z.k.J G J ",
"N G 7.G G G b H e.y.r.r.0.:.5.D V m w w x 3.B x c l c #.z z 8 q 8 l #.#.v 7 7 v *.*.A x M Z D A :.D q.F N k M n H l.k.k.w.x.l.J ",
"G G z.l.7.J H m 0.r.y.e.S 1.D >.>.=.B n w j w q q 7 7 8 8 8 8 q q 8 8 5 6 6 7 v -.A :.j Z A :.1.1.D N Z N N H N H S N J k.G G G ",
"J G J J 5.8.J m e.e.e.0.n 5.D -.:.:.n ,.>.>.=.*.q q q 7 5 8 q z z q 8 z z j 0 x *.c >.0 n j -.1.5.n N 6.y.r.y.y.z.5.H k.7.C C J "
};
