/* XPM */
static char *result[] = {
/* columns rows colors chars-per-pixel */
"64 64 227 2 ",
"   c #010101",
".  c #0A0101",
"X  c #020905",
"o  c #02040B",
"O  c #1F1D1E",
"+  c #13182E",
"@  c #0D1C3A",
"#  c #131E3A",
"$  c #0F2335",
"%  c #252324",
"&  c #2B2929",
"*  c #2C322E",
"=  c #32332F",
"-  c #362E30",
";  c #2C3632",
":  c #333333",
">  c #353735",
",  c #3A3434",
"<  c #4F3311",
"1  c #523614",
"2  c #563816",
"3  c #5B3A15",
"4  c #563A1A",
"5  c #5C3D1A",
"6  c #613E15",
"7  c #603F19",
"8  c #6E0E2B",
"9  c #770A27",
"0  c #740E2B",
"q  c #6B1429",
"w  c #731126",
"e  c #72112D",
"r  c #7C1428",
"t  c #760E30",
"y  c #7C1431",
"u  c #42363A",
"i  c #5F401D",
"p  c #694316",
"a  c #63421C",
"s  c #6A461B",
"d  c #6D491E",
"f  c #754916",
"g  c #734B1C",
"h  c #7A4E1B",
"j  c #7C511D",
"k  c #5E4324",
"l  c #644522",
"z  c #694720",
"x  c #664926",
"c  c #6B4A24",
"v  c #674A28",
"b  c #6C4D29",
"n  c #734E23",
"m  c #784F20",
"M  c #714F2A",
"N  c #6D502E",
"B  c #765125",
"V  c #7C5323",
"C  c #74522B",
"Z  c #7B562B",
"A  c #7D592C",
"S  c #715431",
"D  c #785731",
"F  c #7C5A33",
"G  c #1E274F",
"H  c #162B49",
"J  c #1A3246",
"K  c #1C2B54",
"L  c #1D3752",
"P  c #7A645E",
"I  c #796B66",
"U  c #82122A",
"Y  c #971E2C",
"T  c #8E1B37",
"R  c #961F32",
"E  c #9B1D33",
"W  c #981E3C",
"Q  c #A11A3B",
"!  c #922528",
"~  c #99212E",
"^  c #952233",
"/  c #9A2133",
"(  c #96233A",
")  c #A0202D",
"_  c #B4312E",
"`  c #B52B37",
"'  c #BE2D35",
"]  c #BC2C3B",
"[  c #B63337",
"{  c #BE3435",
"}  c #BD313D",
"|  c #C22E37",
" . c #C72939",
".. c #C12D3A",
"X. c #C13236",
"o. c #CB3036",
"O. c #C3343A",
"+. c #C63639",
"@. c #CA313C",
"#. c #E33F3E",
"$. c #84541D",
"%. c #88571D",
"&. c #8A581E",
"*. c #905C1E",
"=. c #825623",
"-. c #885720",
";. c #855925",
":. c #8B5B24",
">. c #815728",
",. c #835B2B",
"<. c #8A5E2B",
"1. c #905E24",
"2. c #835E32",
"3. c #885E30",
"4. c #8E612D",
"5. c #946125",
"6. c #93642C",
"7. c #99662A",
"8. c #9D6A2D",
"9. c #856035",
"0. c #8C6333",
"q. c #8A653A",
"w. c #8C663A",
"e. c #926633",
"r. c #956935",
"t. c #9A6B35",
"y. c #946B3A",
"u. c #9A6E3B",
"i. c #9E713D",
"p. c #A06F36",
"a. c #A3743C",
"s. c #AA783E",
"d. c #E3453E",
"f. c #E8483B",
"g. c #9F1F40",
"h. c #A02448",
"j. c #BA2D42",
"k. c #BF3142",
"l. c #BD334C",
"z. c #C32D42",
"x. c #C92A45",
"c. c #C23242",
"v. c #C43349",
"b. c #E63D45",
"n. c #F03E4E",
"m. c #8D6A4E",
"M. c #9C7242",
"N. c #A27643",
"B. c #A57945",
"V. c #AB7C44",
"C. c #AA7D4A",
"Z. c #B07D43",
"A. c #81726F",
"S. c #DE4544",
"D. c #D95352",
"F. c #E54544",
"G. c #EA4445",
"H. c #E54943",
"J. c #EB4946",
"K. c #E54449",
"L. c #EA454A",
"P. c #E5494C",
"I. c #F24446",
"U. c #E84653",
"Y. c #F14551",
"T. c #FC6656",
"R. c #FE665C",
"E. c #FE695B",
"W. c #FF6361",
"Q. c #AF814A",
"!. c #B68347",
"~. c #AB998C",
"^. c #B39B8D",
"/. c #A79894",
"(. c #AA9C94",
"). c #AC9D9A",
"_. c #B29B95",
"`. c #B39B97",
"'. c #B3A28E",
"]. c #A9A19A",
"[. c #B3A19B",
"{. c #B09CA5",
"}. c #B5A4A4",
"|. c #C6BBB6",
" X c #CABCB7",
".X c #C7BCB8",
"XX c #CABCB9",
"oX c #D0BEBC",
"OX c #C2C0B4",
"+X c #C7C0BA",
"@X c #CCC0BD",
"#X c #FEF8BE",
"$X c #CFBFC0",
"%X c #96D6DC",
"&X c #98D9DF",
"*X c #B4C6CA",
"=X c #B3CACE",
"-X c #BAC8CB",
";X c #B1CDD1",
":X c #8FDCE2",
">X c #92D9E5",
",X c #9CDDE4",
"<X c #92E1E8",
"1X c #D5D8D1",
"2X c #DCD9D5",
"3X c #DEDAD4",
"4X c #E0D5CF",
"5X c #E2D6D2",
"6X c #E2DAD4",
"7X c #E8DBD2",
"8X c #E4DDDA",
"9X c #D1EDDE",
"0X c #FCFBC7",
"qX c #FFF7CE",
"wX c #E3E0DB",
"eX c #C8FEF8",
"rX c #CDFFFF",
"tX c #D1FFFE",
"yX c #DBFDFF",
"uX c #E8F2ED",
"iX c #EBEFF3",
"pX c #E5F2F1",
"aX c #EAF2F4",
"sX c #EBF3FE",
"dX c #F9F6F4",
"fX c #F8F9F6",
"gX c #FDFCFA",
/* pixels */
"M.F F F y.F D k x v b b k C ,.> % % % % % % % % % % % % % % % % % % % % % % % % % % % % % % % & > l l t.0.0.a.B.B.a.y.D q.M.B.M.",
"Q.Q.C.M.u.N F 2.C w.N.e.Z ,.3.: O o                                                       o O % > l n a.N b r.i.B.a.M.b N M.C.Q.",
"C.M.q.M.B.A F V.0.u.p.p.4.A l :   -X*X=X=X;X=X=X=X=X=X=X=X=X=X=X=X;X;X;X=X=X=X=X;X;X=X=X=X*X    : 6.3.t.2.Z r.r.i.u.w.v S B.C.C.",
"m.q.S F w.w.q.B.A u.t.u.C C 4 : o *X;X=X=X=X=X=X;X=X;X=X=X=X=X=X=X=X=X=X=X=X;X=X=X=X=X=X=X*XX o : r.t.r.r.9.r.w.9.C 9.q.F y.u.m.",
"9.9.C q.q.w.9.u.b t.0.r.C n n > o *X;X=X=X-X-X*X=X=X-X=X-X=X=X=X-X-X=X=X=X=X=X-X=X=X=X-X*X*Xo   : e.<.,.e.3.u.u.9.A i.w.w.M.F w.",
"w.F N M.M.u.r.C v y.t.4.A ,.0.> o pXpXuXsXuXpXsXpXiXaXpXaXaXpXpXaXpXpXaXaXaXaXsXpXiXpXuXaXpX    : 6.e.t.r.0.a.a.9.q.M.w.w.F b F ",
"M.D k b D 9.q.w.0.C c x ,.p.r., X 1X9Xq 0 8 r w 0 8 8 t 8 w w w w w 0 t 8 8 t w U q 9 q q 1XX o : >.3.r.w.0.i.i.2.A y.9.w.F N 9.",
"i.w.w.9.C V.Z.a.a.r.C C e.e.e.* . v. .J L $ T Q E Y Y ~ Y W E E W R Y / Y Y E E T + J J G l..   : >.3.e.,.c c C 0.q.i.V.V.!.D M.",
"u.y.r.w.v r.i.a.a.a.,.x ,.e.e.:   ] +.H K # ( ( ( ) ~ ^ E R R R R R W ^ ~ ) ^ ( ( # H H K j.X   : n i l l x N A 9.e.r.q.N N N w.",
"M.r.r.r.v t.i.r.e.u.0.C 3.4.,., . l.} $ H # Q ~ E 0X0XqX~ E ^ E / / R qX0X0XqX~ / # # $ # l..   : 6.4.,.l A r.s.0.9.C A b C A c ",
"w.c C 9.x 0.0.e.e.A Z <.6.4.V ;   e 0 H H + g.( / 0X0XqX! ^ ^ ^ ^ ^ / qX0X0XqX( E @ K K J e     : 4.4.e.0.C 4.r.0.A u.a.i.r.r.b ",
"3.C 3.t.,.w.w.A C x 0.t.t.t.4.= o e 0 @ $ h.qX#XW ~ ) / W E E E E E ( ^ ) ~ ^ #X0XT H @ @ e     : e.e.4.r.0.B 9.C l 4.t.i.i.0.b ",
"x C r.w.0.e.e.A c B 0.r.t.t.6.;   0 9 j.]  .O._ } k.} k.[ z.z.] ] z.} c.} } k._ X.` l.] ` 0   o : <.e.<.A 4.0.t.6.9.A N B 0.C k ",
"3.,.,.,.e.t.6.<.c C 4.e.4.0.4.:   y r ..X.@.] z.O.] ] ] | X.{ O.| { ..c.] ] z.z.O.x.] | [ y     * <.3.3.B ,.4.0.4.,.9.n C 4.c c ",
"Z A ,.,.0.e.0.6.Z ,.6.e.4.,.e.; . T / K.f.J.H.L.L.F.K.S.b.F.F.F.F.F.K.F.F.F.S.L.S.I.H.S.H.T X   : e.e.<.c c c a a l s l a C 9.,.",
"A ,.Z ,.<.V ,.,.,.6.Z ,.6.4.<.; X [ { d.Y.L.L.b.K.K.K.K.K.K.K.K.K.K.K.K.K.K.K.b.I.b.I.K.H.` X   : z z Z A i B A 4.4.>.C l ,.c 4.",
">.<.C l s z n z Z <.V 6.e.Z l =   x. .L.j.} [ O.| ] | ..| ' ........| | | | O.@._ [ ` n.d.z.X   : <.Z 4.Z n V <.6.7.r.6.4.Z n 4.",
",.V n a l n Z a n <.,.;.;.>.B , . v.z.b.c.} [ k.........] ......] ..] ..] ....z._ x.X.b.#.x.X X : <.6.4.>.m l <.6.t.6.B B <.>.,.",
"a c V ;.C 4 >.s i a a l B ;.B   q t U U.{ rXeXyXrXrXrXrXrXrXrXrXrXtXrXrXrXrXrXtXeXtXz.U.b.9 q q : ,.;.4.<.c a z V V 6.n c ;.B 5 ",
"V <.6.<.g 1 V ;.>.a a i l 4.l   q e e U.' rXeXrXtXtXtXtXtXtXtXtXtXtXtXtXtXtXtXrXeXrXx.U.d.8 q w = V B l 5 4 a n s a ;.i 4 n B a ",
"4.6.8.6.a 2 >.5.7.4.;.a 5 ;.c . w K.H.] k.rXrXrXtXtXtXtXtXtXtXtXtXtXtXtXtXtXtXtXrXtXz.| { F.9 q : C l 7 l c V :.g i s d m V >.V ",
":.5.5.;.5 a :.7.7.>.d s 5 c n o y n.L. .} rXrXtXtXrXtXtXtXtXtXtXrXtXtXtXtXtXtXrXrXtXz.@.+.b.U w : 6.a l :.:.:.V g i d =.V >.:.V ",
";.;.g d 2 g :.7.5.V a s a a l :   c.] S.' rXrXeXrXrXtXrXrXrXtXrXrXrXrXrXrXrXrXrXrXyX..F.H.O.    , <.a a ;.7.<.V ;.=.:.j V g V h ",
"m m d 5 1 g :.7.7.;.s V <.4.<.:   v.z.S.{ rXtXrXrXrXrXeXrXrXrXrXrXrXrXrXrXrXrXrXrXtXv.S.S.}   X : n 5 V V :.:.-.j V =.j d a d V ",
"a $.:.g 3 g =.:.:.;.g V 4.7.6.; o `.~.F.' ,X,X%X>X&X&X&X&X&X&X>X&X&X&X&X&X&X&X%X&X&X] K.F.^.o   : a 5 3 5 7 s =.j g p 3 3 1 2 i ",
"s -.1.h a h j j =.=.6 i ,.4.:.: o ~._.K.O.,X<X:X>X>X>X>X>X>X>X:X>X>X>X>X>X>X>X:X:X:Xl.G.d.(.o   : >.<.6.-.a 2 4 2 3 3 a 3 2 2 3 ",
"a j %.%.p d 5 j ;.5.d a :.;.m :   )._.' P.P.P.S.d.F.F.G.G.F.R.R.d.R.R.E.E.E.E.T.E.E.E.X.X.(..   : V 7.6.<.:.=.g g g d h %.p a a ",
"2 $.-.%.h 3 6 :.:.;.=.d i n 5 :   )._.c.n.G.F.L.G.F.F.K.F.H.R.R.F.R.R.R.R.R.R.W.R.E.E.x. .(.    > a 4.:.6.;.g 5 m ;.$.j $.j h %.",
"1 h $.$.$.3 3 j =.%.>.m 4 z 7 :   )._.~.D.f.G.K.F.F.K.F.F.K.H.F.H.H.F.H.H.F.H.S.F.f.T./.].(.    > 7 n n m =.s 3 %.%.$.$.$.$.p h ",
"3 p $.$.f 3 2 h =.V V s n m >.: . )._.'.n.o...' j.O...} } v.] k.k.c.c.k.c.k.c.c...X.R.{././..   : z 5 7 g 6.m d $.6 $.$.h p 6 6 ",
"6 3 3 < 3 < 2 j ;.V :.a m n ,.:   )._.(.G.' j.} } } ..j.} } ] ] ] k.j.k.O.} } j.{ j.E.]./.]..   : >.n l 7 a 7 a 6 < 3 3 3 6 2 6 ",
"f 6 6 f f 6 3 f =.h <.5 l a ,.>   )._.~.G.o.j. .| | | O.| | O.| | X.| | | | | @.X.' R.}.~./.    : ;.z <.<.:.-.$.6 6 6 3 < 3 6 f ",
"p $.$.h f g j d g ;.V 5 V i 4.: . ).(.'.b.K.L.G.G.K.F.F.F.F.F.F.F.F.F.F.F.F.F.L.d.S.S.{.`.(..   : >.5 Z V V :.=.i j &.&.&.h f f ",
"f $.f $.$.f g j a 3 a d 4.g c :   ).(./.@.F.K.#.F.H.F.F.K.F.F.F.F.F.F.F.F.F.F.d.J.L.| /.`.(.    : V V <.4.;.V d 2 %.&.&.*.j f f ",
"$.p %.$.&.%.6 6 s s g 7.6.V V :   )._.).] P.K.F.F.F.K.F.F.F.F.L.F.G.F.F.F.K.F.H.K.G.v.).`.).    : >.m ;.5.;.g a 1 =.j &.&.f 3 f ",
"f < $.$.$.%.a g s j ;.6.4.>.4.> o (.).).`.P.F.G.K.F.F.F.H.G.F.F.K.F.H.F.F.F.K.F.G.d.^./.`./.    : c a V ;.V j g 3 %.3 $.$.h 3 f ",
"f < %.$.f p a 3 1 2 5 a n B 4.: . /.`.).).U.K.P.F.F.G.F.F.F.d.F.F.K.F.F.J.F.J.P.F.F.~.{.(.(..   : 4 1 4 z m V g 3 p < j $.$.3 6 ",
"6 < 3 3 < 2 g %.V g s 2 1 4 g :   A.P I I ] | [ O.{ { O.} O.O.{ | { O.] } ] ] ..' X.m.I P I     - <.V a 4 a ;.-.s p 2 p %.h 2 6 ",
"%.&.$.$.s h %.&.:.:.:.a a c V =   ).(.}.~.`.).`.`.`.`._.`.`._._._._.~._.~.[.(.(.).(.).).(.].  X , 8.V a n g -.j g 3 d s p 3 1 p ",
":.*.*.$.%.=.5.5.5.;.g B ;.7.<.>   4X7X4XXX5X6X5X3X2X3X3X3X3X3X3X3X3X3X3X8XdXgXdXgXgX$XdXgXfX    & 1.V s m m V V g 2 j $.g 6 6 f ",
":.5.:.:.&.:.1.&.;.V d 5.6.6.7.:   6X6X6XOX6XwX3X6X7X6X6X6X7X5X6X6X6X6X5X6XgXgXgXfXgX$XgXfXfX    u <.c g :.V V -.V 3 $.1.5.s a j ",
":.:.:.;.1.;.-.=.;.V j 7.6.6.4.:   3X5X6X XXXoXXX X+X X X XOX X XXXXXXXXXXX X X XXXXXXX5X8XgX    - <.V >.6.:.;.V s 2 -.5.:.s 5 =.",
"1.:.:.j h a g m s s s 6.4.4.:.: . 3X6X6XOX6X6X8X5X5X3X5X5X7X5X7X5X5X6X5X5X5X5X5X6X6X X6X6XfX    ; >.;.<.:.=.h d a a :.7.5.g a V ",
"5 a d >.a 4 j >.=.a a :.:.,.;.:   3X6X6X X X|. X X+X XXX+X+X XOX+X+X X X+XXX X|. X|. X5X5XfX    : 4.>.>.;.;.;.V 5 s V 6.n d a 3 ",
",.V n V 5 a 6.7.:.V n V V B i :   6X6X5X X X@X XXXXX X X XXX XXX X X X X X X X.X@X+X@X5X8XdXX   : 6.,.V :.6.;.V 5 a m 6.c a a V ",
"V V m a 1 >.8.8.4.>.>.>.;.A m :   3X6X5X X5X5X3X8X6X6X6X6X6X6X6X6X6X6X8X6X6X8X5X8X6X@X4X8X8X    > 4.>.B ;.<.,.c 5 c l <.n i n <.",
"e.6.Z a 5 n <.6.:.<.>.c a B n : X 6X6X6X@X@X X@X.X.X.X.XXX.X+X+X X+XXX+XXX.X.XXX X|.|.6X5XdXX   ; ;.B i V 4.6.>.n V V ;.n c n <.",
"4.4.V a l z s <.<.4.V ,.B 4.4.:   6X6X6X+X8X5X6X6X8X6X6X6X8X6X6X6X6X6X6X8X6X6X6X6X4X|.6X3XwX.   = c i 5 ,.6.7.4.<.>.;.4.s ,.a ,.",
"<.4.V l c l 5 ;.0.6.B ,.V 4.0.:   6X6X6X+X8X6X8X5X5X5X6X5X5X6X4X6X5X5X5X6X5X5X6X7X6X X5X6X3X    , <.,.c ,.,.,.6.;.,.6.0.n 6.l 4.",
"l Z l 4 c B c <.4.,.V ,.Z <.4.=   3X5X6X X X@XXX X X X XXXXX X X X X X X X X XXX@X+X@X5X8X2X    , 4.,.,.,.4.6.n ,.,.4.4.n 0.l l ",
"A 0.A A 6.4.,.z l c <.C ,.,.,.:   8X6X6X+X8X5X6X6X6X6X3X6X6X6X6X3X6X6X6X6X3X5X6X3X3X|.6X3X3XX   : 4.,.;.c n Z 5 0.4.r.4.c ;.n x ",
"n A ,.r.e.e.e.C C ,.4.c Z ,.,.:   3X6X6X X XXXXXXX X X XXXXXXXXXXXXXXXXXXXXXXX X@X+XoX5X5X3X    , B ,.Z k ,.4.l r.4.e.,.,.r.a.2.",
",.b c r.e.r.Z >.l A ,.,.a c A = . 3X3X6X+X8X5X6X6X6X6X6X6X6X6X6X6X6X6X6X6X6X6X6X5X6X|.6X3X3X    : c n c Z r.<.x 2.e.e.a.a.a.s.p.",
"F c l 0.,.0.b b ,.t.e.t.,.C 6.=   3X6X6X+X7X6X8X5X6X5X5X3X6X3X5X5X6X6X6X5X3X6X5X6X6X+X5X6X3X    - c ,.0.p.a.a.l n r.e.s.!.s.V.t.",
"b A x q.2.3.Z 2.9.r.a.e.B C ,.:   3X5X6X X X@XXX X XXXXX X X|.XX|. X X XXXXXXXXX+X|.@X7XwX3X    ; z c 6.e.y.r.M b u.A t.Z.B.a.u.",
"x C x x v v Z v Z t.a.w.c n Z : . 6X6X6X+X8X5X6X6X6X3X6X6X6X6X6X6X6X6X3X6X6X5X3X6X3X X5X3X3X    : z l M ,.3.3.C b b x 0.r.a.r.u.",
"k 2.F S 2.S e.b N t.t.0.,.e.t.=   3X5X6XXXXX X XXXXXXXXXXXXX X XXXXXXXXXXXXXXX X@X XoX5X8X5X    , a l V 0.r.A x b 3.2.9.9.A v v ",
"C M.u.u.N.r.N.2.b u.t.e.0.e.t.=   8X6X6X@X@X X@XXX.XXX XXXXXXX XXXXX.X XXXXXXXXX|.|.|.5X3X3X    ; l A e.9.4.9.Z w.F w.A C u.9.F ",
"y.y.u.M.N.u.M.3.x A w.w.e.e.6.:   6X6X5X+X7X8X8X5X5X5X3X5X5X5X2X5X5X6X3X5X5X5X6X8X6X X5X6X3X    : l 9.6.e.0.N C r.Q.V.B.9.w.M.y.",
"y.B.N.V.B.N.D S x c c ,.0.e.6.:   6X6X5XXXXXXXXX X XXXXX.XXX X.XXX|. X X X XXXXX@XXXoX5X6X3X    > l 4.6.t.9.D x 2.V.B.!.q.b b D ",
"2.m.N.N.B.M.b 2.r.p.y.u.,.c c :   8X3X2X.X5X6X3X6X6X8X6X8X6X5X8X6X8X6X6X6X6X6X3X8X6X@X2X6X3X    > a 0.r.r.0.N x C M.i.B.M.F N F ",
"v S w.C S b x F y.B.t.t.e.,.,.=   8X5X6X+X6X3X3X6X3X6X6X5X2X6X6X3X6X6X3X6X6X6X6X3X2X.X6X3X3X    : Z t.9.c l c l F M.y.y.y.B.M.F ",
"N S B.M.w.F F v y.a.a.u.C 0.,.: > * : : : : : : : : : : : : : : : : : : : : : : : : : : : * > : > Z l C n b D N D C N F m.N S S ",
"F S F F 2.w.F v u.y.r.u.l <.C : : > > : : : : : : : : : : : : : : : : : : : : : : : : : : > : : ; x n 4.a.i.a.B.i.9.F w.w.N S F "
};
