/* XPM */
static char *_63b2e764ba9478dcdf96ed98e8d3542IGYMUxZK0xeahidG[] = {
/* columns rows colors chars-per-pixel */
"64 64 124 2 ",
"   c #4F3311",
".  c #523614",
"X  c #563816",
"o  c #5B3A15",
"O  c #573B1A",
"+  c #5C3D1A",
"@  c #613E15",
"#  c #603F19",
"$  c #5F401D",
"%  c #644117",
"&  c #6E4516",
"*  c #63421C",
"=  c #6A461B",
"-  c #6D491E",
";  c #704614",
":  c #744916",
">  c #794C16",
",  c #734B1C",
"<  c #7A4E1B",
"1  c #7C511D",
"2  c #5E4324",
"3  c #644521",
"4  c #684721",
"5  c #664926",
"6  c #6B4A24",
"7  c #674A28",
"8  c #6C4D29",
"9  c #724D23",
"0  c #784F20",
"q  c #714F2A",
"w  c #6D502E",
"e  c #765125",
"r  c #7C5324",
"t  c #74522B",
"y  c #7B562A",
"u  c #7D592C",
"i  c #715431",
"p  c #785731",
"a  c #7C5A33",
"s  c #84541D",
"d  c #88571D",
"f  c #8A581E",
"g  c #905C1E",
"h  c #825623",
"j  c #885720",
"k  c #855925",
"l  c #8B5B24",
"z  c #815728",
"x  c #835B2B",
"c  c #8A5E2B",
"v  c #905E24",
"b  c #835E32",
"n  c #885E30",
"m  c #8E612D",
"M  c #946125",
"N  c #986427",
"B  c #93642D",
"V  c #9A662A",
"C  c #97682F",
"Z  c #9C692E",
"A  c #856035",
"S  c #8C6333",
"D  c #876338",
"F  c #8C663A",
"G  c #8F693C",
"H  c #926632",
"J  c #956935",
"K  c #996B34",
"L  c #9A6B35",
"P  c #9B6D37",
"I  c #9C6D36",
"U  c #9E6F37",
"Y  c #946B39",
"T  c #946B3A",
"R  c #916A3C",
"E  c #936B3C",
"W  c #946C3E",
"Q  c #946D3E",
"!  c #9A6B39",
"~  c #996E3B",
"^  c #9D6F39",
"/  c #9B6F3D",
"(  c #986F3F",
")  c #9D703C",
"_  c #9E713D",
"`  c #9C713F",
"'  c #9E723E",
"]  c #A26F35",
"[  c #A16F36",
"{  c #A07038",
"}  c #A0703A",
"|  c #A6743B",
" . c #A3743C",
".. c #A3743D",
"X. c #A6763F",
"o. c #AA773D",
"O. c #AA793E",
"+. c #956D40",
"@. c #997041",
"#. c #997143",
"$. c #9D7242",
"%. c #9D7243",
"&. c #9F7441",
"*. c #A27540",
"=. c #A27642",
"-. c #A07546",
";. c #A17747",
":. c #A67841",
">. c #A37845",
",. c #A57845",
"<. c #A47947",
"1. c #A67A46",
"2. c #AA7942",
"3. c #AB7A42",
"4. c #AA7B43",
"5. c #AB7C44",
"6. c #A77B48",
"7. c #A97D49",
"8. c #B07D43",
"9. c #AF8046",
"0. c #AF814B",
"q. c #AF814C",
"w. c #B78243",
"e. c #B58349",
/* pixels */
"#.a a a T p p 2 5 7 7 8 3 t x c B x + u r r k h % r f f f > > ; ; s s > : : s - 9 k r + r $ c m m 3 3 ^ m A | O.1. .E a D #.>.;.",
"q.0.7.#.#.8 b a t J  .J y b n 4 6 z e l M l 1 - X s f l f > : > > > > s s : , < % $ % - c 6 9 3 3 3 e | q q G ) >. .#.8 t $.7.q.",
"7.-.F -.2.a a 2.S ! } ^ S u 3 y y z 9 l m k 1 $ . f 1 f f & o < s & s d f d @ # = % , M N r y z m B x L A e J T ) ) G 7 i 1.7.;.",
"G D i a D G F 2.p ~ I ^ e t O 4 9 4 % y h 1 r - o f o s s > o : ;   s d d s @ , - r k B c x l B [ L T J K A T F A t A A a +.Q +.",
"D A t D F G A ~ 8 ! S J t 8 9 3 - + . o = 1 r < o =   1 s 1 o % :   s s < & o o X X + * 9 9 B J J B c x H x I ~ b a &.S G E A G ",
"F a w $.$.~ E t 5 T L m u c m B B m y * O % l h % * X & s 1 o o %   o o   X , d 1 < = O   O , r y B J L T S )  .A A &.G F a 8 p ",
"#.p 2 8 p D S S S t 8 3 c [ J B B Z r = - , h h , o - - % o X % s f s 1 & < s M l l l = = 6 r 9 z x m J H S ^ ~ b a E A S a w A ",
"~ G G b t 2.8.*. .J 8 t H H J m B m e - 9 e h 1 1 X 1 s : % % , j v M k d k l M l k , 9 k B c r x y c S u e 7 p S S ) 4.9.e.p $.",
"~ Y Y S 5 T )  . . .x 5 c J B m m m - , k r r h r o s v M = % 1 l M M l l l v d j h - l V B V m m e * 3 3 3 w y A J T S w w 8 S ",
" .J Y Y 5 ) P T J ~ S q c n x x x M y h B l k 1 = o h M l = + h l l j k l l d h k r 1 K B B c c m B m u 3 x Y | S b t y w t y 8 ",
"S 8 t A 7 S S H S x y c B m e * 6 z z l l x r - * * l V M , @ r v l l r 9 * 9 < = * - B m m k y u m m H S y S J S y ^  .) ~ T w ",
"n 8 c Y x H S u t 3 S ~ L L m u c c h y k l k r + % r B < 6 * o + * - h % o r z y = = k l c x x x m H m H S 9 A t 5 S P I ) S 7 ",
"5 t Y H S H J u 5 e B J L L B y B C x e l B l r + % r m 9 * * z x r 9 h O * l Z l e e r r e * O 6 m m m u m S ~ B A u 8 e S t 2 ",
"n n x x H J m m 8 t m H S m m 3 y m k r z c x - $ 6 = l 9 + 9 x x r 9 * . h Z Z m z r z k z e * r m S x e x m H m u m t t m 6 8 ",
"y y x c m H B B y x m H m u H 4 c x 9 $ y v B y 9 r y k 9 6 8 c B m z + + 9 c B l l z , * e e * x B H m 6 6 6 4 * 3 * 4 * y m u ",
"u x y y m y u z x B x x S m c e y 9 * + x B N B x z x m - y * c B c r 3 3 = 6 c m c y z y m m e t 4 3 u u $ e t m m x e 2 x 6 m ",
"x c y 3 3 3 9 4 y c y B B r 3 y y c x 6 z x c m x x B B e S 3 m c m y - 4 3 + c m m e c y m H x y x r m y , y m B B J m m y 6 B ",
"x y 9 * * 9 z * 9 c c x x z 9 B S m x x x m B 9 x x B m 8 m * 2 5 t = O 9 e 4 c B x y x e c c m e m B m z 9 = c m Z M e e m x r ",
"$ 6 r k 9 O y - + * 3 3 9 x r L m c x x 7 9 y * m m J m 6 x e 3 y S u u S m y 3 2 6 c 9 c c x c y z x m c 6 * 6 r r m 9 - x e + ",
"r c B c 9 . 0 l r * = * 3 c * e y r x y 2 x m 3 Y m S x x P | c e y x H H Y H r t c B 6 t x x z m y e = + O * 9 - = c $ O 6 e = ",
"c N Z B * O z l N m k * + c 9 y y 6 9 7 y J m 3 x S J I o.o.O.U u 8 4 P J J t x 3 y b u 3 6 z K B y = $ 3 - z l , $ = - r r k r ",
"l m N z + = l V V r - = O - 9 6 e 7 c m ^ | | 3 e P S o.w.O.O.Y a 8 3 S x S 7 t c J H P b 9 S B m M $ = k c l r e $ - h r r j r ",
"k k < = X 9 l V B h % = * * = y r 4 7 B H L T 8 7 I x ) 5.o.| T 7 a 5 S A S t b x K | T q r x c m m * * k M c r k s l 1 r < y 1 ",
"< r - o . < l N V k = y v c c c y 4 $ t x b x y w 8 5 A J | Y ) 5 t 5 5 5 5 y 5 y T | S 6 q y z u 6 + r r l j k r 1 h , - * = h ",
"+ z l , o , k d l d 9 r c B B c x * 4 y m T x 7 e A b A A a 5 8 2 a a t A t J 8 q ! K S x J K z 4 # + + # # = r 1 , = X o . O + ",
"= d M < @ < 1 r z h @ # k B c = + 3 u S A S A t S a F y t E A a y ' ) $.) Q &.b 8 ~ T H c J K c r z c B k % X O X o o % o X X o ",
"% 1 d s = = o r k M - = c k 9 6 3 4 m J J m w w E 9.5.*.A G #.E E Y ` ~ *.#.*.b 4 b S H H J J B 7 z N B c l h < , < - < s = % * ",
"o s d d < o % d d h z - # 9 + 3 e 3 c H T x u 6 a 9.1.e.G 7 8 a E -. .7.2.*.p t 7 7 5 x m H c c * * c v B k , + , k 1 s s 1 < f ",
"X < s d s o o 1 h k h < O 4 # 4 3 2 H H J S w 3 t ) #.1.E a i a a +.;.6.1.#.8 b J ` T Y x 6 8 9 3 # 9 9 < k = o f f s s s s & < ",
"o % s s > o O < k r y - 9 9 r r x y J m 7 3 6 3 a &.+.G +.5.#.a 7 i G i i 8 5 a Y | ) U J x x y r 6 + # , B 9 - < @ s s < & o @ ",
"@ o @       o 1 k h k * 9 0 x c m t 6 t q 6 u w y t 8 A G i i i w i %.%.F a y 7 T  . .~ t n y c x z 9 3 # % # % @ o o o o o o @ ",
"; @ @ ; : @ o < s 9 l + = 3 x H m 3 7 S | ) ) ,.&.A a G G 7 w a a i a a b F a 7 ~ ! T T 3 S y z x x 5 v c c k 1 % @ @ o . o @ ; ",
"; s s > , > s - < k r + y * c m m * 4 [ A S  .O.1.*.E a F +.;.%.#.a a a +.a i 2 5 7 8 7 2 t x c S z + y r r k k $ 1 f f f < > ; ",
"> > > s 1 , , 1 * o * 6 l , 6 * 3 2 e | w w J ) | ) ` w i #.q.q.q.q.6.#.#.w b a t E  .J y c c 6 8 z e v M j r - X d f f g 1 ; > ",
"s ; s s f f % o = * , N B y y h S B x I x y Y Y ) ) G 7 i ;.7.;.6.#.+.%.1.a a 4.S L } I S y 3 y y x 9 l m k < * . h 1 f f & @ > ",
"; . s s f s % , = 1 z B M x c B [ Y Y H L A J F A w A G a E +.+.+.a i a G F F 2.y ~ I ^ t e O 6 6 = % y h r 1 - o d o s s > o : ",
";   d s > & $ o . O + $ 9 e m J Z J x x J u ` ~ A p %.D F G A F D A i D D F S E e T H H t 8 e 6 - O . O = < 1 1 X &   < s s o @ ",
"%   o o   X & k 1 < = X   O 9 r y B J L Y S )  .A S ' G F a 8 a F a 8 #.&.E Y t 7 T L S u x m B B m y * O * k h = % X & s 1 o @ ",
"s f s s - < s v l l l = * 4 r 9 x r m J H S L ) A u Q S S a w D %.p 5 8 i S S E b t 7 4 c ^ B m J Z r * 9 , k r , o , = @ @   % ",
"d v g s f d l M M k - 9 l B c r x u m m u e 5 a S D ) 4.9.e.y  .#.F E n t 2.5.` :.H t t H H J m B B r = 9 < h 1 < X 1 s , @ % , ",
"M M v l l l v j k r , M C B C B m e 2 * 3 3 w u m F T S w w w S ~ J T S 5 T ~ | | | x 5 c J H m m m 6 , l r r h r o s v N = % r ",
"l l j h v s j h k r , Z N B c l m N m u 3 a P | F b t y q t u 7  .E J T 8 ~ ~ T H Y m t c c x z c l y z v l k r = X h M v % + h ",
"c c l r e % , r = * - B m m k z y m m H S y m T S y ) | ) Y P w S q t b 5 S S S J u y c B B y * 9 z z l c k < , $ * j Z l , * 1 ",
"+ % - h = O 1 z r * = j k c x x r H H B m S w c t 3 m L I ) S 6 b 8 b ! c H S u t 3 S ~ L L m y c l h z x l k r + = r B r - * + ",
"x r , y O * M C M e 9 h e e $ O 6 m m m u S S P H x u w t A t 2 6 t J S S H T x 7 9 H J L K B y B Z k r l B l r + % r v 9 * * r ",
"z r 9 % . z Z Z m r r x k x e * u m S x e x m B m x A e e m 6 8 S c x y H T S m 9 t c H S c S 3 u m y e x l y 6 + 6 3 c 9 + 9 x ",
"C B y * + 9 c B j c x 4 * e 9 3 x B J m 4 8 4 4 3 3 3 4 3 y c x y y c c m H B m y x H H c x J 3 m x e * y c B z 9 r r k 9 6 9 c ",
"B c e 3 = 4 = c m m r z y m m u e 6 * u r 3 e t m m u e $ x 7 m y x y y m y z x x m y x B c x r y 4 * O x Z N B x z x m = x * c ",
"x c y 4 = 3 + x B B r x y m m c r c y c z 9 y c B J C B c y 9 B x c e = * - e 4 u c y B m y 3 r y c r 6 x x x m x c B m e m 4 S ",
"4 y 3 + 8 e 7 c m x y x r c m S t n B c z 9 = c m Z V e e c x y x y 9 $ * 9 u * 9 c l x x u e B m m x x x m N 9 u x m m 8 m * 3 ",
"u m y u B m y 3 * 7 x 9 x x x c r z c c c 6 * 4 r r B 6 = c e + $ 6 y x e O r 4 + * 3 3 e k e J m m m x 7 e y $ m m J m 5 x t 3 ",
"8 u x H H J H y t c B 7 y x x u c z 9 3 + + * 9 = * l * O 6 e = r c N m 6 . e k y * * * = m * r y e x y $ x m 2 J m H x x P | x ",
"x 8 7 Y H P y x = y c y * 7 x C B h 3 # * 6 h k 9 + = - e r h r c C Z B * X z M N M k = * x e y y 6 e 7 u J S 3 x H H ) | | o.) ",
"u 8 5 S x c 7 t c T J P x t B B H B * 3 c l l r 9 * , h r r k y l l B l + = l N N y 4 * O 6 9 6 e 6 u m ) | | 4 e Y H o.w.o.O.Y ",
"7 u 7 S b n y x b J O.Y q r x m n c * # k N l h h h j r 1 , h 1 k h , = O 9 l V M r * = * % * r e 4 6 B S J Y 8 8 T u ) 5.:.o.P ",
"5 t 5 5 7 7 p 7 y T } S 4 8 y x z 9 + r r l l h 1 r k < - * - r < r , o   < l N V k = r l m m m y 4 $ t x m c t t w = S T  .T ) ",
"2 b a t b t J 8 8 ! P S x J L z 4 3 + + + # = r 0 , % o o . X @ * r l , @ , h k l l < r M B B c x 3 * y m Y u 6 8 A A A A y 7 7 ",
"t ) ~ $. .E *.b 8 ~ T J x P L c r r c B k @ X o o o + @ o o . o = s M 1 @ < h < r h * + k m x 4 + 4 x S A m A u S y F y w ) S a ",
"E +.~ #.-.~  .b 5 x S S H J B m 4 z C v v l k , , 0 - < s & @ @ ; < z s ; - o r k M - = x k 9 3 * 4 c J H S w w T 5.5.*.A F #.E ",
"E *.*.7.2.-.p i 5 7 7 c c J m c 4 * c c B k , + , j 1 s s < s d X s d d < o @ d s h h = * 9 $ = t 3 m J Y x u 5 b e.1.e.F 7 w a ",
"b +.%.-.>.$.8 b T ) T L x 7 6 9 3 # 9 9 0 j - O l j d s s s ; > o > s f s o o 1 h k s r $ * $ * 3 $ H H T S 8 5 t &.+.6.+.a t a ",
"7 i F i i 8 2 a Y | ^ ) J x c y r 6 + 3 , B , , < = < s > ; o @ o @ s s < o X < k 1 y = 4 r r r x y P A 9 2 6 2 a ) +.+.Y 1.#.a ",
"w i ;.%.F a p 6 T }  .! t c y c c y 9 * + * # @ @ X X o o @ o @ @ . o     . X 1 k z x * e r z m m u 4 e t 6 p w p w w a +.w i i ",
"a i a a D F a 5 ~ ~ T T 5 S y y z x 4 v c c k r @ @ @ o   o @ : : @ @ : : * o 9 r r l + = * x m A 3 8 S | )  . . .D a F F w w a "
};
