/* XPM */
static char *_994cb6f5ae648cecac46a0a3a179d7ak3fNchUR64VjxaMk[] = {
/* columns rows colors chars-per-pixel */
"64 64 144 2 ",
"   c #4F3311",
".  c #523513",
"X  c #563816",
"o  c #5C3B15",
"O  c #563A19",
"+  c #5C3E1A",
"@  c #613E16",
"#  c #603F19",
"$  c #5F401D",
"%  c #644117",
"&  c #6E4515",
"*  c #64431C",
"=  c #6A461A",
"-  c #6D491D",
";  c #704614",
":  c #744916",
">  c #794C16",
",  c #734B1C",
"<  c #7A4E1B",
"1  c #7C511E",
"2  c #5E4324",
"3  c #644521",
"4  c #694720",
"5  c #664926",
"6  c #6B4A24",
"7  c #674A28",
"8  c #6C4D29",
"9  c #734D22",
"0  c #784F20",
"q  c #714F2A",
"w  c #6D502E",
"e  c #765024",
"r  c #7C5323",
"t  c #74522C",
"y  c #7B562B",
"u  c #7D582C",
"i  c #715431",
"p  c #785731",
"a  c #7C5A33",
"s  c #282E48",
"d  c #223444",
"f  c #263749",
"g  c #2B3E53",
"h  c #2F435C",
"j  c #424F5E",
"k  c #42505D",
"l  c #475363",
"z  c #4A5865",
"x  c #545E68",
"c  c #52626F",
"v  c #58626C",
"b  c #536371",
"n  c #951C1A",
"m  c #B11D1B",
"M  c #BC221E",
"N  c #8D1E27",
"B  c #BD2323",
"V  c #CB1F1C",
"C  c #CB2016",
"Z  c #C5231E",
"A  c #C9211B",
"S  c #C21F20",
"D  c #C62422",
"F  c #C92321",
"G  c #C72A23",
"H  c #C32D2C",
"J  c #CC2E2F",
"K  c #D32620",
"L  c #D72825",
"P  c #D12C2A",
"I  c #DC2E2B",
"U  c #DE2E30",
"Y  c #D03636",
"T  c #D13D39",
"R  c #E92727",
"E  c #E62B26",
"W  c #EC2729",
"Q  c #E72A28",
"!  c #E92A29",
"~  c #EA2830",
"^  c #ED3130",
"/  c #84541D",
"(  c #88571D",
")  c #8A581E",
"_  c #905C1E",
"`  c #825622",
"'  c #885720",
"]  c #865924",
"[  c #8B5B24",
"{  c #815728",
"}  c #835B2B",
"|  c #8B5E2B",
" . c #905E24",
".. c #845E32",
"X. c #885E30",
"o. c #8E612D",
"O. c #956225",
"+. c #986427",
"@. c #93632C",
"#. c #99662A",
"$. c #97682F",
"%. c #9C692E",
"&. c #856035",
"*. c #8C6333",
"=. c #876338",
"-. c #8C663A",
";. c #8F693C",
":. c #926633",
">. c #956935",
",. c #9A6B36",
"<. c #946B3A",
"1. c #9A6E3B",
"2. c #9E713D",
"3. c #A26F35",
"4. c #A3743C",
"5. c #AA793E",
"6. c #EE4D3B",
"7. c #956D40",
"8. c #9C7242",
"9. c #A27643",
"0. c #A57844",
"q. c #AB7C44",
"w. c #A77B48",
"e. c #AB7E4A",
"r. c #B07D43",
"t. c #DB5248",
"y. c #ED5A48",
"u. c #F65B47",
"i. c #D2615D",
"p. c #EA6243",
"a. c #EB6049",
"s. c #F16043",
"d. c #F66248",
"f. c #F6685E",
"g. c #DA6A66",
"h. c #E26666",
"j. c #E77672",
"k. c #FFF200",
"l. c #AF8046",
"z. c #AF814C",
"x. c #B78243",
"c. c #B58349",
"v. c #78828B",
"b. c #FFE9E6",
/* pixels */
"8.a a a <.p p 2 5 7 8 7 2 t } } o.u $ r r r o.1 $ 1 ) ) ) < > ; ; / / > > : / = 1 { r O r $ } o.*.3 3 2.&.o.5.5.0.4.<.p =.8.0.8.",
"z.z.w.8.7.t ..a t ;.4.:.u X.X.6 9 { e o.O.] r - X ( [ _ _ < & > > > > / / : , 1 % $ % - o.9 9 * 4 * e 4.8 8 -.2.0.2.8.8 i 8.e.z.",
"e.8.=.0.0.a u q.*.,.4.3.{ e O ` 6 $ $ * 3 o., $ X / 1 ) ) ; o > > & / / ( ( % $ = * , +.@.e { { o.o.} ,.&.y >.<.2.2.;.7 i w.z.8.",
"7.=.i a -.-.&.q.u 1.,.1.| 9 . e [ r $ u e X r - $ $ $ = / > o : >   / ( / / % : = r ] @.| { o.@.3.,.>.>.,.&.>.*.&.t &.&.a 7.7.7.",
"=.a t =.=.<.&.1.8 ,.*.:.@.* X ` O.$.o.O.e . e ] r * $ $ $ 4 X % :   / / 1 & o o . X $ * , e @.,.>.$.o.u :.} ,.2.&.a 8.-.;.;.a ;.",
"7.a w 8.9.7.;.p 7 <.,.o.] + = [ +.@.r @.$ X { O.#.o.o.* $ $ = $ %   o o   X , ) 1 , * X   X 9 e y @.>.,.,.*.2.2.&.*.2.=.;.a w a ",
"7.p 2 8 p &.&.:.X.y 6 5 = X 0 ] #.#.r ] $ % [ #.#.r - = * * $ * - ( / 1 * 1 / O.[ [ O.* 3 6 r e { | o.>.*.o.2.2.&.u <.&.*.a w =.",
"7.;.-.&.t q.r.4.4.;.t t O . 0 [ +.+.] = . 1 [ +.@.r = * o.o.* * * [ O.] ( / [ O.O.] - 9 [ @.o.e { u } *.u t 7 y =.*.2.q.l.c.p 2.",
"8.>.<.-.5 <.2.4.4.4.} 6 , o , ] ] O.] o . , o.O.+.] - 1 { - * | * @. .[ ( [  .( ' r , [ #.@.%.o.@.q $ $ 3 * 8 u &.>.<.*.w q 8 -.",
"2.>.:.>.6 1.1.>.>.,.*.t < # < r 1 1 r , $ , / ] o.] 1 r r * * - * > > < / / , , 1 * + % - o.4 9 * * 2 8 4.q 8 -.2.0.w u w t u 6 ",
"*.8 y ..6 *.*.*.:...t } / = = @ 1 { O.1 $ < 1 1 1 1 $ $ ] = r * % / ; / / ( ( @ @ = * 0 +.@.e r u @.o.o.,.&.y :.>.2.2.4.2.<.<.8 ",
"&.q ..>...*.] e O r 4 * $ * 4 b b b b ( & = $ 1 ] O.- * ] 1 r * r :   / ( ( ( @ , = r ] @.o.{ o.@.2.,.,.$.,.&.>.*.&.o.,.2.2.*.6 ",
"3 y :.*.*.o.| 9   e [ r * * k.k.b b b b c / 1 % 1 1 1 1 ` + # 0 r ; . / / > % @ o . O O * e e o.$.$.>.o.u >.&.1.,.&.u t e &.t 2 ",
"X.X.} } :.,.@.* O ` @.#.| k.k.k.k.k c b b c / = = $ 1 ]  ., * * + % . X o . X , ' r , * O   O 9 r r o.o.,.,.o.2.4.a o.8 e o.6 q ",
"y } } ..o.:.] + = | #.#.k.k.k.k.k.k.4 k b b c c / = - $ e '  ., * ' ' / 1 = > `  .[  .O.* * - r , u o.*.>.*.*.,.2.&.= 3 * e o.u ",
"u { y { o.y = O , ] #.@.k.k.k.k.k.k.$ $ * 4 k c c c v 1 ( , # @ , '  .O.( ( '  .O.[ ' , e [ @.o.r u y o.o.u q 8 y &.u y 2 &.4 o.",
"{ | e 3 3 6 O . , [ #.#.k.k.k.k.k.k.* * * $ l b b b b `  . .& # `  . . .[ ' [  .' ] r - [ #.@.%.o.@.q $ 2 3 3 q u &.$.o.o.y 6 @.",
"{ u 9 3 * 9 , o , ( ] [ k.k.k.k.k.k.* @.| * * l z b b x  .+.+. . .+.L S F F D F D D D D G Q Q Q E E E Z * | o.%.$.#.$.e e o.{ u ",
"* 4 r ] 0 O < # < r r ` k.k.k.k.k.k.* ` - 3 $ 4 j b b b g h +.+. . .S { u u u t u u p u ^ Q Q Q Q Q E m * 6 e r @.e $.9 3 | e O ",
"e o.$.| 9 . ( = - o 1 ' k.k.k.k.k.k.r r * * * $ j b b g g g v.+.+.h.g.y u y u u y u y ~ E Q Q Q Q Q Q M * 0 6 * [ * | + O 9 e = ",
"| $.%.@.* O ` 1 @ > r 1 k.k.k.k.k.k.r ] - r * * d d g g D B B ! W W ! Q W R ! Q E Q Q Q Q Q Q Q Q Q E C r [ 0 O * $ * - e r ` e ",
"] O.@.] O = ] ' = - o r k.k.k.k.k.k.$ [ e r = * d d d S m y.t.P T Y J f.H U H I Q Q Q Q Q Q Q Q Q Q E V | r 0 + - $ , ` ` ` [ ` ",
"] ] , - X 0 [ #.@.1 ( = = k.k.k.k.- * r $ $ r * d s N D 6.W Q W Q E Q Q W Q U E Q Q Q Q Q Q Q Q Q Q E C [ r ' ` [ ` [ r e e r e ",
"0 0 - O . , [ #.+.] = r | ( k.k.+ 1 ] O.- = r r f n n s.Q Q Q Q Q Q Q Q Q Q Q Q Q Q Q Q Q Q Q Q Q Q Q Z [ ] e / ] 1 ' , , % = ` ",
"* ` [ , + , ' ` [ ] 0 r | %.1 @ 1 ` 1 ` r $ $ 1 b.Q ! E Q Q Q Q Q Q Q Q Q Q Q Q Q Q Q Q Q Q Q Q Q Q Q A = ` < 9 * , % o o . X $ ",
"& '  .< % < r 1 ` ` # + ] @.( = = o 1 ] O.- * $ u.E Q Q Q Q Q Q Q Q Q Q Q Q Q Q Q Q Q Q Q Q Q Q Q Q Q A X O X o o o o $ o X X o ",
"* 1 ( ( = = # 1 ]  ., * | , = ( = , o e ] O.- * a.E Q Q Q Q Q Q Q Q Q Q Q Q Q Q Q Q Q Q Q Q Q Q Q Q Q A ' , , , - 1 = 1 ( = % % ",
"X / ( ( > o @ ' [ ] ` 4 % - O X , [ +.+.] = r | a.E E ! Q Q Q Q Q Q Q Q Q Q Q Q Q Q Q Q Q Q Q F Q Q Q V , + 0 ' / ( 1 / / 1 1 ( ",
"X > / ( / o o r ' ` r e + [ , o , ( ' O.] , r O.a.E Q Q Q ! D Q Q Q Q Q Q Q Q Q Q Q Q Q Q R K D Q Q Q A = O [ ' ( ( / / / / = > ",
"o % / / > o X < ] r ` = 9  .< @ < 1 e ` ` $ $ ] a.E Q Q F F F Q Q Q Q Q Q Q Q Q Q Q Q Q Q L D D D Q Q A < - < & > & > / > & o @ ",
"@ o o       o < ] ` ] * 0 ' ( = - + 1 ' O.- * | a.E Q Q I F Z F Q Q Q Q Q Q Q Q Q Q Q Q Q F D F Q Q Q A + # @ o o X o o o o o @ ",
": @ @ : : @ o > ` , | + 3 ( ( , o % ] ' ` ` - $ a.E Q Q E Q D F D F D D D D F F D F F F F D D Q E I E A ' ` # @ @ @ @ o   o @ : ",
"; / / > , > ` = 0 ` r + e ( ( ( o X r ' ` ` e O a.E Q Q Q E Q D F F F F F F F F D D F D D Q Q Q Q Q Q V [ ` $ r ( r ) ) ( < > : ",
"> > > / 1 , , 1 * + % 9 | > / < X X < ` ` ` = 9 a.E Q Q Q Q Q E D F F V Z F V V A V V A D Q Q Q Q Q E A r = X ( [ ( ) [ _ < ; > ",
"/ @ / ( ) ) % @ = * , @.@.@   . X X r ' r | * e a.E Q Q Q E Q W F F F Q Q Q E Q Q Q Q D F Q Q Q Q Q Q A 1 % . ` < / > ( ) ; o > ",
">   / ( ( / % , = 1 ' @. .@ : ; @ o , ` 0 ] + * a.E Q Q Q Q Q Q F F F Q Q Q Q Q Q Q U F F E Q Q Q Q E A e , X ( @ ( @ / ( > o : ",
"; . ( / , = @ o X O + % , 1 1 : , ( = < ] r + e a.E Q Q Q Q Q Q F F F Q ! Q Q Q Q Q ! F D Q Q Q Q Q E A r < X & . & . > / < o @ ",
"@   o o . X ; ' 1 , * O . 1 / / , , e % o * , o.a.E Q Q Q Q Q Q F F F E E Q Q Q Q Q ^ D F Q Q Q Q Q E A ] ` = * X @ X - / / X @ ",
"( ) / / = > /  .[ [ [ = * ( ( ( ( @ @ = * , +.@.a.Q Q Q Q Q Q Q F F F ! Q Q Q Q Q Q Q F F E Q Q Q Q Q V ] / , O - o , = @ @ . @ ",
"' _ _ / ] '  .O. .] , e ' / ( / ( @ , = r ] @.o.a.E Q Q Q Q Q Q F F F Q Q Q Q Q Q Q Q F F Q Q Q Q Q Q A / e < X < X < ` > @ # > ",
" .O. .[ [ [  .' ] r , O.@.( / > = @ o X X + * 9 a.E E ! E Q Q Q S F F R E R Q Q Q Q Q F F E Q Q Q E ! A r ] r X / X `  .O.= * < ",
"[ ] ] ]  .' ` ` ] ` 1 @.@.X o   X - ( 1 , = O   a.! ! E ! ! Q Q K F D Q ! E Q Q Q Q U F F Q Q Q Q E ! A ] r = X ' X ' O. .* # ` ",
" .| [ r 0 = , 0 = * - @.@./ 1 = > /  .[ [ [ * * a.E Q Q E Q Q Q F D F Q ! ! Q E Q Q Q D F Q Q Q Q Q Q A < - % * [ * [ #.[ 9 % r ",
"+ * = ` = O e ` r * * | ] O.] ( ]  . . .[ - 1 | a.E Q Q E E Q E F F F V Z F V V V Z V S F Q Q Q Q Q Q Z ] r $ = r = r @.0 9 + + ",
"] 0 9 r O *  .,.[ e e r e  .[ [ [  .] ' r , O.@.a.E E Q Q E Q F F F F D F F F F F F F D F Q Q Q Q Q Q V | e + * e = e  .9 * * r ",
"{ y 0 * . { %.%.o.r ` { ] ] ] [ ' ] ` ] r e @.$.a.E ! E Q Q D F D D D D D D D D D F F F F F F Q Q I E M ] 4 $ 4 4 4 = | 9 + 9 | ",
":.@.` * O 9 [ @.| | { 9 * [ r 1 * , e = * - @. .a.E Q Q I F F D R Q Q Q Q Q Q Q Q Q Q Q Q A F F Q Q Q Z @.` 9 e r r y { 0 4 6 | ",
"o.| e 3 = 6 6 | o.o.r { e - { = o e ] r * * ] | a.! Q Q F D F Q Q Q Q Q Q Q Q Q Q Q Q Q Q L F F D Q Q G $.o.| } ] { ] @.4 y 3 | ",
"| } y 6 5 3 + ] *.@.e | e 9 r O % @.#.o.e , r e a.E Q Q Q Q D Q ! Q Q Q Q Q Q Q Q Q Q Q Q Q K D Q Q Q A } @.| | @.} o.o.e o.4 *.",
"5 y 3 O 9 e 6 | o.} y } y 9 * . ` %.%.o.{ ` ` | a.Q Q Q Q Q Q Q ! Q Q Q Q Q Q Q Q Q Q Q Q Q Q D Q Q ! A @.9 y { *.| o.o.q o.$ 3 ",
"u *.u { o.o.{ 3 3 6 } e } ` * O 9 | @.| | { 9 3 a.E Q Q Q Q Q Q E ! Q Q Q Q Q Q Q Q Q Q Q Q Q Q E ! ! A e 3 *.o.>.o.:.o.6 | t 3 ",
"9 u } :.:.>.:.y t } :.4 u e 4 3 3 6 | o.| r { e p.E Q Q Q Q Q Q Q E Q Q Q Q Q Q Q Q Q Q Q Q Q Q Q E E A o.2 ,.*.@.*.:.} u ,.3.&.",
"} 8 6 ,.:.>.y { 5 u o.{ 3 y 4 3 * + | o.@.e | r p.Q Q Q Q Q Q Q Q Q Q Q Q Q Q Q Q Q Q Q Q Q Q Q Q Q Q A ..3 } >.:.*.@.2.4.4.5.3.",
"a 6 5 *...*.6 q } >.:.,.} 3 O 9 e 6 } @.} y { t d.! Q Q Q Q Q Q Q Q Q Q Q Q Q Q Q Q Q Q Q Q Q Q Q Q Q D 4.3 6 1.:.,.:.5.x.5.5.,.",
"8 u 5 &.....t ....>.4.>.t u u @.o.y 4 $ 6 } 9 } | e } Q Q Q Q Q Q Q Q Q Q Q Q Q Q Q Q Q Q Q E E Q Q | 0 } ,.,.6 6 2.u 2.q.0.4.2.",
"5 t 3 7 5 6 u 7 y >.4.*.5 } :.:.,.*.y t | :.6 y o.6 y j.h.h.h.h.h.h.h.h.h.h.h.h.h.h.h.h.h.h.h.h.h.i.*.4 y X...y w 8 5 *.>.4.>.1.",
"2 ..a t ..t *.q w ,.,.*.} 6 ,.:.>.y } 5 y | { 3 | u 3 X o o   @ # ` [ , @ , ' ` [ ' e e o.@.o.| | * &.u 2 ,.u 5 6 &...&.&.p 7 7 ",
"t 2.2.8.8.>.0...8 1.1.:.*.3 *...*.7 q } <.:.,.} X o o # o   o o = (  .< # < ` r r ` % + [ @.| 4 + * u o.&.o.&.y *.a *.u t 1.*.a ",
"<.<.,.7.0.1.8...5 ..*.*.:.5 *.....y ....>.4.>.q 9 , & > / ; o @ = < ( ( = = o 0 ] O., * | ] 0 6 3 4 o.$.$.*.w t >.l.e.0.&.;.8.<.",
"<.0.9.e.0.0.p p 5 6 5 } *.3 5 5 5 y 5 y ,.4.*.6 , ' / / / > / ( X / ( ( > o % ' ] ] ` - $ 6 O - t 3 &.:.,.u p 7 ..l.0.c.;.7 8 p ",
"a ;.0.0.0.8.8 ..<.2.>.,.u a t ..t :.q 8 1.1.*.{ [ ' ' ` / / @ / . > / ( ( o o / ' ` ` e O = $ = * 2 :.:.,.*.w 7 t 2.7.w.7.p i a ",
"w i =.w i i 2 p <.4.2.1.:.} ] y e 6 3 # ,  .0 , < & > / / ; o @ o @ / / < X X < ] r r = 9 e r t } y ,.} 6 3 4 3 p 8.<.7.<.w.8.a ",
"w i w.8.-.p p 7 >.4.4.1.t X.u } | y 9 3 # # @ # @ X X o o o o @ @ o o   . . O < ] r ] * e e } o.&.y 6 t q 6 p w p t 7 a 7.i i i ",
"a i a a ..;.a 7 1.,.<.1.3 X.y } { { 4  .| | ` ` # # @ o   o @ : : @ @ , ; % O 0 ` e | + * 3 ] o.o.4 8 o.4.2.4.4.9.=.a 7.=.w w a "
};
