/* XPM */
static char *b6f00e1af0f843c7a3d01e280261fdc3oJMMdaqr5WNMJFzY[] = {
/* columns rows colors chars-per-pixel */
"64 64 188 2 ",
"   c #4F3311",
".  c #523614",
"X  c #563815",
"o  c #5B3A15",
"O  c #563A1A",
"+  c #5C3D1A",
"@  c #613E16",
"#  c #603F19",
"$  c #0C7435",
"%  c #057E34",
"&  c #0D7F3B",
"*  c #12753C",
"=  c #137C3B",
"-  c #1C7C3E",
";  c #207C3D",
":  c #5F411D",
">  c #644117",
",  c #6E4516",
"<  c #64421C",
"1  c #6A461B",
"2  c #6D491E",
"3  c #704614",
"4  c #744916",
"5  c #794C16",
"6  c #734B1C",
"7  c #7A4E1B",
"8  c #7C501D",
"9  c #5E4426",
"0  c #644522",
"q  c #684721",
"w  c #664926",
"e  c #6B4A24",
"r  c #674A28",
"t  c #6C4D2A",
"y  c #724D23",
"u  c #784F20",
"i  c #704F2A",
"p  c #6E502E",
"a  c #765125",
"s  c #7C5323",
"d  c #73522C",
"f  c #7B562B",
"g  c #7D592D",
"h  c #725431",
"j  c #785630",
"k  c #7C5A33",
"l  c #147C42",
"z  c #1C7C43",
"x  c #237A45",
"c  c #287C49",
"v  c #377E56",
"b  c #84541D",
"n  c #88571D",
"m  c #8A581E",
"M  c #905C1E",
"N  c #825622",
"B  c #885720",
"V  c #865924",
"C  c #8B5B24",
"Z  c #815728",
"A  c #835B2C",
"S  c #8B5E2B",
"D  c #905E24",
"F  c #835E33",
"G  c #885E30",
"H  c #8E612D",
"J  c #946125",
"K  c #986427",
"L  c #93642C",
"P  c #99662A",
"I  c #9B692E",
"U  c #856035",
"Y  c #8C6334",
"T  c #876338",
"R  c #8C663A",
"E  c #8F693D",
"W  c #926633",
"Q  c #956935",
"!  c #9A6B35",
"~  c #946B3B",
"^  c #9A6E3B",
"/  c #9E713D",
"(  c #A16F36",
")  c #A3733C",
"_  c #AA773D",
"`  c #AA793E",
"'  c #956D40",
"]  c #9D7241",
"[  c #A27643",
"{  c #A57945",
"}  c #AB7B44",
"|  c #A77B48",
" . c #AB7E4A",
".. c #B07D43",
"X. c #00852D",
"o. c #008B2E",
"O. c #028534",
"+. c #0A8636",
"@. c #018C35",
"#. c #098935",
"$. c #03853A",
"%. c #0B853B",
"&. c #028C39",
"*. c #0A8A3C",
"=. c #12823D",
"-. c #16853E",
";. c #009135",
":. c #03913A",
">. c #0A923B",
",. c #0E8642",
"<. c #038C43",
"1. c #0C8B42",
"2. c #0D8A49",
"3. c #128544",
"4. c #1A8344",
"5. c #138B43",
"6. c #1C834A",
"7. c #198B4A",
"8. c #049444",
"9. c #0B9246",
"0. c #079448",
"q. c #139548",
"w. c #1F945F",
"e. c #258347",
"r. c #248550",
"t. c #2A8253",
"y. c #2B8A55",
"u. c #37855A",
"i. c #3E9C5E",
"p. c #2A9560",
"a. c #3B9964",
"s. c #439866",
"d. c #4CAA6E",
"f. c #4EA578",
"g. c #52A674",
"h. c #58B579",
"j. c #AF8046",
"k. c #AF814C",
"l. c #B78243",
"z. c #B58349",
"x. c #5BB581",
"c. c #65B183",
"v. c #6BBC8B",
"b. c #6DBB91",
"n. c #74BB91",
"m. c #69C993",
"M. c #71C89B",
"N. c #83CEA5",
"B. c #9BCDAB",
"V. c #87D7AA",
"C. c #97D7AD",
"Z. c #99CAB5",
"A. c #9DDBB4",
"S. c #B2D1BF",
"D. c #9CE3B7",
"F. c #96FFCD",
"G. c #B5F2CB",
"H. c #B9F3CE",
"J. c #B9F5D3",
"K. c #BEFFDB",
"L. c #C6F8DB",
"P. c #CFFFE3",
"I. c #C7FFED",
"U. c #CFFFEF",
"Y. c #D7FEE3",
"T. c #D2FFE9",
"R. c #DBFFEB",
"E. c #D6FFF4",
"W. c #DEFFF2",
"Q. c #D9FFF9",
"!. c #ECEDE7",
"~. c #E3FFEC",
"^. c #EBFEEE",
"/. c #F2F1ED",
"(. c #F1FFEE",
"). c #EEF4F0",
"_. c #E4FFF3",
"`. c #ECFFF4",
"'. c #E5FFF8",
"]. c #EEFFFB",
"[. c gray96",
"{. c #FAF4F5",
"}. c #F3FEF5",
"|. c #FAFCF4",
" X c #F6F7F9",
".X c #FBF7FB",
"XX c #F4FFFB",
"oX c #FEFEFE",
/* pixels */
"] k j k ~ k j 9 0 t t t 9 d A S H Z : s s s H 8 > s n n m 5 5 4 3 b b 5 5 6 b 1 6 V s + s : S H H < 0 / H Y ` { { ) ~ j T ] | ] ",
"k.k.| ] ' t F k d R ) W f A G e y Z a H H C s 1 X n m J M 5 3 5 5 5 5 b b 4 6 7 > : < 6 H q y < 0 9 a _ t t W / { ] / p p ] k.k.",
"| | R ] { k k } Y ! ) ( H f 0 f Z Z y C J V 8 > X b 8 n m 3 o 5 5 , b b m n @ @ 1 < 6 L L a Z Z H H g ! U a W ~ / / R r h ] | | ",
"' T h k R R Y } g ^ ! ^ d d O q q e < s Z 8 a 2 X n o b b 5 o 4 5 . b b n n @ 6 1 s C L S V H L ( ! ! Q ! U ~ W U d U T k ' ' ' ",
"T k h T R R F ^ i ! Y W d t a 0 2 O . O < 8 s 8 o 1   5 n 8 o > 5 . b b 7 > > o X X + < 6 a L Q I W S g W U ^ ^ U k ] Y E E T R ",
"' k p ] ] ^ ~ d r Q ! Y Z S H L L H g < o < V N < > X 2 n 8 o o @   o o   X 4 C 8 6 < X   X y a f L I ! Q Y / ) U Y ] R E k p j ",
"' j 9 t j T Y R U f e 0 S ( Q H I I a < e 6 V 8 6 o 2 1 > o X < n n b 8 1 7 N C C J J < < e s y Z S H Q Y Y ^ ^ U g ~ U T k p T ",
"~ E R U d } ..) [ W d d W W Q H L H s 2 a 8 N 8 8 X 8 b 4 > > 6 V D D V m m C J C V 2 a C L S s Z g S U g a e j T Y / ` j.z.j / ",
"^ ~ ~ R t Q ^ ) ) ) S 0 F Q L H H S e 6 V s s N N o N D D 1 @ u C J D C C C D N C 8 6 S P L I H L t : 0 0 < t g U Q ~ U p d t W ",
"^ ~ W ~ e ^ ^ ~ W ! H i S G A Z S D s Z L C V s 1 X N D D 1 # N C C B V C N C b V s u P L L S S H L H g w g ^ ) Y U d j t d j e ",
"R } [ R ] | k k } Y ~ ) / Y g 0 f f Z y V C C 7 # . b 7 m M 3 o 5 5 , b n n n @ < 1 < 6 J L a s s H L A ! U f W ~ / / W p j { k.",
"G E T h k R R Y } g ^ ! / a d O e e 1 < Z V s s 2 o b @ b b 5 o 6 5   b n n n @ 4 , s V L H C H L ( ! Q W ! U ~ W U p U T k ~ E ",
"0 T T p T R R U ^ p ^ W L d e a q 1 O . O 1 u s u X , . 7 b b o @ 3 . b b 5 1 @ + . O + < e a H I I W U A Q g ^ ^ U g ] T R E k ",
"G R k p ] [ ^ ~ d r Q Q H g U H W I H Z # X 1 B N 1 # . 4 N 7 X @ > . o o   X , C 8 6 2 X X X y a f H I Q Q W / ) U T ] E E k p ",
"f ] j 9 t j U Y R U d t w S ! I H L ! s 0 6 y N N 6 o 4 , @ @ X > B B b 8 , 7 b C C J C < < 2 s a g H U ~ W H / / U g ~ U Y k 1 ",
"A ~ ~ R F d ` ../ _ W a p W L Q L L S s q u 7 N u u X u b 6 @ # 6 B D D B C N D J C V 4 a V L H a Z s H H g t e f U T / } j.j.S ",
"k ~ ~ Q R e ~ ^ ) ) ) F 0 S Q L H H S q y V s N N 8 o N D J 1 # 8 C J C C C C D B B s 2 D L L I H L y : 9 < 0 t g G ~ ~ G t d 2 ",
"] ' @.@.@.@.@.@.@.@.#.@.@.&.@.@.@.@.@.&.@.@.@.@.@.@.@.@.@.@.@.@.@.@.@.@.@.@.@.@.@.@.@.@.@.@.@.@.o.@.@.@.@.@.@.@.@.@.@.@.@.@.8.< ",
"[ | @.@.@.&.@.#.@.@.@.@.@.@.#.@.&.@.@.;.^.4.@.@.;.@.@.@.@.@.@.@.@.@.#.@.O.@.&.@.@.$.&.&.@.&.@.@.@.@.@.@.&.@.@.@.@.@.@.@.@.@.@.x ",
"k E @.@.@.@.@.@.O.@.@.@.@.@.@.@.@.@.;.@.|.4.@.@.@.@.@.@.@.@.@.@.@.@.@.@.@.@.@.@.@.@.@.@.@.@.:.@.@.@.@.@.@.@.@.@.@.@.@.@.@.@.@.- ",
"T R @.@.@.@.@.7.w.$.@.@.@.&.5.m.W.a.&.*.p.q.@.9.p.<.@.@.@.@.@.@.@.~.XX}.XXXXXXXXXXXXXXXXXX].*.@.@.@.@.@.;.&.@.@.@.@.@.@.@.@.@.; ",
"] ] @.@.@.@.&.XXoX`.&.@.;.$ |.oX{.oX@.#.oXB.&.v.oX&.@.@.@.@.@.@.@.}.oXoXoXoXoXoX[.}.oXoXoXoX@.@.@.@.@.@.:.'.`.}.`.&.@.@.@.@.O.z ",
"t j @.@.@.;.1. XS.oX&.@.@.}.oX3.X.%.@.+.oXB.&.v.oX@.@.@.&.@.@.@.@.}.oXoXoXoXoXoX}.;.%.oXoXoX@.@.@.@.@.@.@.oXoX|.oX$.O.@.@.@.@.z ",
"F d @.&.@.@.`.oX1.oXJ.;.&.oX~.@.&.$.@.@.oXB.@.v.oX@.@.@.@.@.@.@.@.}.oX|.oXoXoXoXY.@.&.oXoXoX@.@.@.@.@.@.#.XXoXoXoX&.#.@.@.@.@.- ",
"~ r @.@.:.&.|.|.U.}.oX*.:..X|.;.>.;.@.%.oXB.@.v.oX@.@.@.@.@.@.@.@.XXoXoXoXoXoX.X}.,.n.oXoXoX@.@.@.@.@.@.:.XXoXoXoX@.@.@.@.@.@.- ",
"W t @.@.@.f.oXE.U.R.XX6.@.s. X}.R.^.&.%.|.B.@.v.oX'.W.&.o.#.@.@.@.XX|.oX% @.+.+.O.O.^.oXoXoX@.@.@.@.@.@.&.oXoXoXoX&.o.@.@.@.@.- ",
"R [ @.@.&.(.`.@.o.@.`.~.&.@.z XX].~.@.O._.C.o.m.(.}.XX<.@.@.@.@.@.XX|.R.@.O.&.@.@.@.=.oXoXoX@.@.@.@.@.@.:.oXoXoXoX@.@.@.@.@.@.- ",
"h k @.@.@.@.@.@.#.;.@.@.&.;.@.@.&.@.@.&.@.#.#.@.@.@.@.@.@.@.@.@.@.(.oX&.c oX%.@.@.o.&.`.oXoX@.@.@.@.@.@.:.XXoXoXoX&.;.@.@.@.@.z ",
"h T @.@.+.@.@.@.@.@.$.@.@.@.@.@.@.@.@.@.@.@.@.@.#.@.&.@.#.@.@.@.@.`.y.0.oXXX;.@.;.d.;.X.|..X&.@.@.&.@.@.&.oXoXoXoX&.@.@.@.@.@.z ",
"t ] @.@.@.&.l &.@.;.@.O.@.@.9.@.O.&.$.>.o.&.#.@.;.q.%.=.:.:.@.@.@.`.A.~.XXl @.&.*.}.t.&.*.&.&.@.@.@.@.@.;.XXoXoXoX@.o.@.@.@.@.- ",
"9 t &.&.Y.oX X.X&.&.oX_.;.=.oX=.$.).!.;.@.XX}.@.&._..XoX}.;.@.@.@.}.oXoX|.@.@.@.=.oXXX4.-.3.@.@.@.@.@.@.&.oXoXoXoX&.o.@.@.@.@.z ",
"R F @.R.[.b.,.u.@.&.oX'.&.= oX6.}.oX0.;.@.oX}.&.=.oXs.@.&.&.@.@.@.XXoX|.].@.@.@._.oXoX.XoXoXo.@.$.@.&.@.;.oXoXoXoX@.@.@.@.@.@.- ",
"~ R O.}.|.%.;.;.@.@.oX'.&.-.oX`. X*.#.@.@.oX}.@.%.oXXXoXl X.@.@.@.XXoXoX_.@.@.:.}.oXoXoXoXoX@.@.F.@.:.@.:.oXoXoXoX&.o.@.@.;.@.- ",
"k ~ &.oXoX;.;.$.;.#.oX'.#.= oXZ.[.D.#.@.;.|.XX&.&.&.i.[..X&.@.@.@.`.oXoXB.#.@.o.M.oXoXoXoXoX@.@.Q.'.@.@.&.XXoXoXoX@.@.#.;._.@.- ",
"] ^ @.V.oX`.6.`.;.&.oX`.@.4.oX= ~.oXy.>.;.oXXX;.%.K.%._.oX&.@.@.@.~.oXoXe.@.P.@.*.oXoXoXoXoX@.@.E.XX}.&.;.XXoXoXoX:.@.O.|.oX@.z ",
"[ | @.#.V./.oXoX@.&..X_.@.%.oX% o.}.oX-.@..X}.@.h.oX[.oXT.&.#.;.O.XXoXoX*.;. X$.@.|.oXoXoXoX@.o.Q.oXoX`.1.}.oXoXoX$.r.}.oXoX@.z ",
"k R &.@.;.8.I.&.o.O.;.:.@.@.:.@.;.@.&.O.@.&.&.@.@.&.a.2.>.;.@.X.V.<.@.8.&.@. Xg.;.v.oXoXoXoX@.@.E.oXoXoXoXoXoXoXoX_. XoXoXoX@.z ",
"T R ;.@.>.m.L.@.#.@.@.&.@.@.@.@.&.@.@.@.@.@.@.$.#.5.'.:.@.@.@.6.* &.@.#.@.*.oXXX@.$.oXoXoXoX&.;.5.XXoXoXoXoXoXoXoXoXoXoXoXN.@.- ",
"] ] @.@.*.&.@.@.@.@.@.@.@.@.@.@.@.@.@.@.@.@.@.@.&.@.#.o.@.@.&.~._.|.oXoX|.oX.X{.*.@.oXoXoXoX&.&.;.@.}.oXoXoXoXoXoXoXoXoXz X.#.- ",
"t f :.7.t.r.t.r.r.r.r.r.r.r.r.r.r.r.r.r.r.r.r.t.t.t.t.r.t.;.&.;.@.`.XX|.oXoXoX|.R.@.h.oXoXoX@.&.@.o.*.}.oXoXoXoXoXoXoX,.@.@.@.- ",
"U d @.@.%.%.=.+.=.$.3.+.=.=.=.%.%.%.%.=.*.%.$.*.,.=.%.=.%.O.@.@.#.`.oXoXoXoXoX).{.O.@..XoXoX&.@.@.@.@.%.oXXXoXoXoX}.@.@.@.@.&.- ",
"R t &.@.@.@.@.@.@.&.&.&.&.@.@.@.#.@.;.&.&.#.&.&.;.&.@.@.@.@.;.@.@.^.oXoXoXoXoX|.oXv z XXoXoX&.@.@.@.@.X.#.`.oX}.XX;.O.@.@.@.@.- ",
"Q r @.@.@.@.@.@.|. XXX%.c oX6.R.oX$.e..X%.`..X.XXX$.@.@.@.@.#.:.l }.oXoXoXoXoX.XXX%.2. XoX}.;.;.@.@.@.@.&.&.~.'.@.&.o.@.@.@.@.l ",
"R [ @.@.@.@.@.;.oX`.&.&.o.R.oXoX& @.z oX=.@.~.oX@.@.@.@.@.@.o.2.|..XoXoXoXoXoXoX,.@.{.oXoX$.&.@.@.@.@.@.@.@.&.;.&.@.@.@.@.@.@.- ",
"h k @.@.@.@.@.&.XXoX`.&.:.% |.].o.@.x oX+.@._.oX@.o.@.@.@.@.9.oXoXoXoXoXoX.X{.e.;.T.oXoXr.#.@.@.@.@.@.@.@.@.@.@.@.@.@.@.@.@.&.- ",
"h T @.@.@.@.@.o.XX`.;.@.@.XX}.oXN.@.x oX+.#.~.oX@.@.@.@.@.@.K.J.H.G.G.G.G.G.x.&.% H.H.D.;.;.@.@.@.@.@.@.@.@.@.@.@.@.@.@.@.@.@.z ",
"p ] @.@.@.@.@.&.}..XXX= c.}.,.P.|.%.x oX=.@.~.oX@.@.@.@.&.@.>.o.@.@.@.@.@.;.;.o.o.@.@.o.#.;.@.@.@.@.@.@.@.@.@.@.@.@.@.@.@.@.@.- ",
"w t @.@.@.@.@.&.>.@.$.;.&.@.X.o.&.X.:.;.o.:.&.@.@.#.@.;.@.@.@.@.@.@.@.@.@.@.@.@.@.@.@.@.@.@.@.@.@.@.@.@.&.@.@.@.;.@.@.@.@.@.>.u.",
"R G &.%.#.$.#.%.+.%.#.& %.+.%.$.#.+.%.+.=.%.#.#.$.+.#.#.#.#.$.+.#.%.$.%.&.%.*.$.*.%.%.%.&.%.%.$.&.%.%.$.$.*.%.$.*.%.&.%.%.1.3.< ",
"~ R 0 O a a q S L A f A a S H L d G L H Z u < S S I L s a S Z Z Z Z y 0 0 a s : y S A Z A g a I W S S A Z H W y g Z L H e L 0 V ",
"f Y g g H H Z 0 : e A y S A A S s Z V S S q < e s s L y e V a : : e s Z u O s 2 + < 0 q u A s Q Y S A A e y s : H H Q U y A i 2 ",
"y g A W W Q W f d S L e f A A Z S s f 0 + + < y 1 < A < o e a < s S L S y . a C s < 0 # 0 D 0 a s a A f 9 A H 9 ! Y L A Z ! ) < ",
"A t e ! W Q f g q f S f 9 e g ! L Z 0 # < 6 s V y < < 2 a s N s S I I L < X N L L C S < : S q s g q y e g Q Y 0 S R L / _ _ _ / ",
"F e 0 Y F Y e i G ~ Q ! A a H H W L # q V S C s u + 6 N N s C s V D L V + < C P P Z 2 < + e u e s e A H / ) _ 0 e ! W _ l._ ` Q ",
"t k w R G G d F F Q ) Q y f A H G S # < A P D Z Z N C s s 7 a a V V u , X y C K L s < 1 < < 1 a a e e L L Q ~ t t ^ g / } _ _ ^ ",
"0 d 0 0 0 t f r f Q ) Y e y f A Z y + s s C C N 8 s N 7 2 > 2 N u u 2 O X 7 C K K V 2 s C H H S f 0 : d A G A f p e w U Q ) ~ ^ ",
"9 k k d F d R t t ^ ! Y Z I ! Z q : + + # # 2 u u 6 < X o o   @ # N C 6 o 6 N V C C 6 s H L L S S 0 e a H ! A w d F U U U g r r ",
"d / / ] / ~ _ F e ^ ! W Y W ! S s s S L V < X o X o @ @ o   o o , B J 7 < 7 N 7 s N < + V L S e + < g Y S U U f Y g Y g p ^ T k ",
"~ ~ ^ / [ / ] G e g Y Y L ! W S e Z I D S V V 6 6 7 , 7 b 3 o @ # 7 B n 1 4 + 7 C D 6 < C V a q 0 0 H Q Q Y d p ~ j.} | U E / ~ ",
"~ | ]  .} ] j d r t e F Y W Y S 0 < S S D V u + u N b b b 7 b n o b B n 6 o @ C V N N e : e + < a 0 S Q Q k j w F } { z.E r t j ",
"k E [ | | ] t F W ) Q ! f q y y 0 # y y u V 2 o B B B b b b @ b . 5 b n b o o b N B Z u O e : 0 0 < W W ! Y p w d ] ' | ~ k h k ",
"t h R p p p 9 k ~ [ ^ ^ Q A A g f e + < 2 L 7 2 u , 7 b b 3 o @ o @ b b 7 o X 7 N s N 1 6 s s a S d ! A e w w 0 k ] ~ ' ' | ] k ",
"p h { ] R k j r ~ ) _ ^ d G g S A Z y 1 @ < # # @ X X o o o o @ @ o @   . . X u N N A < y s C H U f e d e e g t j d r k ' h h h ",
"k h k k F R k t ^ ! Q ^ 0 G f g A Z q S S V N N # @ @ o   o @ 5 3 @ @ 6 3 @ O u s s C + < 0 Z H H w e Y _ / / { / U k ' T r p k "
};
